<svg xmlns="http://www.w3.org/2000/svg" version="1.1" xmlns:xlink="http://www.w3.org/1999/xlink" xmlns:svgjs="http://svgjs.com/svgjs"  x="0" y="0" viewBox="0 0 128 128" style="enable-background:new 0 0 512 512" xml:space="preserve" class=""><g><g xmlns="http://www.w3.org/2000/svg"><g><path d="m58.291 19.017a36.331 36.331 0 0 0 -8.54 13.435l-2.125 13.048a36.444 36.444 0 1 0 10.665-26.483z" fill="#696eaf" data-original="#696eaf"></path><path d="m46.769 70.107h13.794v10.148h-13.794z" fill="#d1d1fd" transform="matrix(.707 -.707 .707 .707 -37.442 59.968)" data-original="#d1d1fd"></path><path d="m43.063 74.325a2.43 2.43 0 0 0 -3.435 0l-27.353 27.354a10.533 10.533 0 0 0 0 14.9 10.533 10.533 0 0 0 14.9 0l27.351-27.356a2.43 2.43 0 0 0 0-3.435z" fill="#696eaf" data-original="#696eaf"></path><path d="m64.807 25.533a27.051 27.051 0 0 0 -5.023 6.919l.057 24.8a27.237 27.237 0 1 0 4.966-31.722z" fill="#7cd6f3" data-original="#7cd6f3"></path><path d="m74.247 32.451h-35.428v13.049h35.428a6.522 6.522 0 0 0 0-13.044z" fill="#fdcb71" data-original="#fdcb71"></path><g fill="#fdb158"><path d="m56.382 55.846a1.407 1.407 0 0 0 1.406 1.406h4.373v-3.918a1.512 1.512 0 0 1 1.512-1.512h2.359a1.512 1.512 0 0 1 1.512 1.512v3.918h4.373a1.407 1.407 0 0 0 1.406-1.406v-10.346h-16.941z" fill="#fdb158" data-original="#fdb158" class=""></path><path d="m23.831 22.635a16.345 16.345 0 1 0 16.344 16.344 16.345 16.345 0 0 0 -16.344-16.344zm-2.7 20.96a4.616 4.616 0 1 1 4.615-4.616 4.616 4.616 0 0 1 -4.612 4.621z" fill="#fdb158" data-original="#fdb158" class=""></path></g></g><g fill="#26272d"><path d="m111.073 17.782a38.2 38.2 0 0 0 -62.517 12.918h-8.656a18.094 18.094 0 1 0 .006 16.544h6.043a37.905 37.905 0 0 0 6.711 19.289l-7.457 7.457-.913-.913a4.2 4.2 0 0 0 -5.9.006l-27.36 27.36a12.286 12.286 0 0 0 17.374 17.375l3.93-3.93a1.75 1.75 0 0 0 -2.474-2.475l-3.93 3.93a8.786 8.786 0 1 1 -12.425-12.425l27.357-27.351a.688.688 0 0 1 .961-.006l2.107 2.107c.013.013.021.028.034.041l7.176 7.176c.013.013.029.021.042.034l2.1 2.105a.69.69 0 0 1 .007.962l-7 7a1.75 1.75 0 0 0 2.474 2.475l7.007-7.007a4.2 4.2 0 0 0 -.007-5.9l-.912-.913 7.455-7.455a38.2 38.2 0 0 0 48.762-58.406zm-87.242 35.793a14.594 14.594 0 1 1 14.6-14.594 14.61 14.61 0 0 1 -14.6 14.594zm17.433-19.375h32.983a4.772 4.772 0 1 1 0 9.544h-32.979a17.582 17.582 0 0 0 0-9.544zm24.768 15.874h-2.359a3.266 3.266 0 0 0 -3.263 3.262v2.164h-2.278v-8.253h13.441v8.253h-2.279v-2.164a3.265 3.265 0 0 0 -3.262-3.262zm-13.651 31.1-4.7-4.7 7.127-7.127c.712.846 1.457 1.669 2.247 2.459s1.611 1.531 2.454 2.242zm56.219-11.849a34.692 34.692 0 0 1 -59.143-22.078h5.175v8.6a3.16 3.16 0 0 0 3.156 3.153h1.035a28.976 28.976 0 1 0 45.736-34.7c-.284-.285-.569-.558-.864-.821a1.75 1.75 0 1 0 -2.327 2.615c.245.217.479.443.714.679a25.481 25.481 0 1 1 -39.243 32.1 1.751 1.751 0 0 0 1.071-1.613v-3.68h1.884v3.68a1.75 1.75 0 0 0 1.75 1.74h4.373a3.16 3.16 0 0 0 3.156-3.157v-8.638a8.272 8.272 0 0 0 -.826-16.5h-11.4a25.334 25.334 0 0 1 22.882-11.335 23.511 23.511 0 0 1 3.782.536 24.557 24.557 0 0 1 4.666 1.494 1.75 1.75 0 0 0 1.389-3.213 27.947 27.947 0 0 0 -5.309-1.7 26.747 26.747 0 0 0 -4.312-.61 28.866 28.866 0 0 0 -27.189 14.823h-6.407a34.7 34.7 0 1 1 56.251 38.625z" fill="#26272d" data-original="#26272d" class=""></path><path d="m39.834 101.446-3.53 3.53a1.75 1.75 0 1 0 2.475 2.475l3.529-3.53a1.75 1.75 0 0 0 -2.474-2.475z" fill="#26272d" data-original="#26272d" class=""></path><path d="m21.134 32.616a6.365 6.365 0 1 0 6.366 6.365 6.372 6.372 0 0 0 -6.366-6.365zm0 9.23a2.865 2.865 0 1 1 2.866-2.865 2.868 2.868 0 0 1 -2.866 2.865z" fill="#26272d" data-original="#26272d" class=""></path></g></g></g></svg>