<svg xmlns="http://www.w3.org/2000/svg" version="1.1" xmlns:xlink="http://www.w3.org/1999/xlink" xmlns:svgjs="http://svgjs.com/svgjs"  x="0" y="0" viewBox="0 0 512 512" style="enable-background:new 0 0 512 512" xml:space="preserve" class=""><g>
<path xmlns="http://www.w3.org/2000/svg" style="" d="M190.8,245.499L34.799,88.9c-4.199-4.2-10.8-5.4-16.199-3.3c-3.316,1.107-10.439,7.917-13.801,15.601  C1.5,107.199,0,114.099,0,121v270c0,6.899,1.5,13.799,4.799,19.799c2.1,4.801,5.402,9,9.3,12.599  c19.718,15.774,26.861-7.034,176.7-156.899C196.8,260.799,196.8,251.199,190.8,245.499z" fill="#c5c9f7" data-original="#c5c9f7" class=""></path>
<path xmlns="http://www.w3.org/2000/svg" style="" d="M342.201,245.499c-5.402-5.7-15.601-5.7-21,0L265.8,299.2c-2.999,2.699-6.899,4.199-10.8,4.199  s-7.8-1.5-10.8-4.199l-53.4-53.701c-5.4-5.999-15.599-5.999-21,0c-16.199,16.201-147.599,147.9-165,165.3  c2.1,4.801,5.402,9,9.3,12.599c1.501,1.201,3.001,2.401,4.801,3.001c7.8,5.7,16.5,9.6,26.1,9.6h422c9.6,0,18.3-3.9,26.1-9.6  c5.4-1.8,11.7-10.201,14.101-15.601C489.8,393.399,358.4,261.7,342.201,245.499z" fill="#e1e4fb" data-original="#e1e4fb" class=""></path>
<path xmlns="http://www.w3.org/2000/svg" style="" d="M507.201,101.201c-5.897-13.479-19.641-22.664-30-12.301l-156,156.599c-6,5.7-6,15.3,0,21  c16.046,16.049,139.506,140.039,156,156.601c9.807,10.898,24.1,1.186,30-12.301c3.3-6,4.799-12.9,4.799-19.799V121  C512,114.099,510.5,107.199,507.201,101.201z" fill="#a8aff1" data-original="#a8aff1" class=""></path>
<path xmlns="http://www.w3.org/2000/svg" style="" d="M507.201,410.799c-2.401,5.4-8.701,13.801-14.101,15.601c-7.8,5.7-16.5,9.6-26.1,9.6H255V303.399  c3.9,0,7.8-1.5,10.8-4.199l55.401-53.701c5.4-5.7,15.599-5.7,21,0C358.4,261.7,489.8,393.399,507.201,410.799z" fill="#c5c9f7" data-original="#c5c9f7" class=""></path>
<path xmlns="http://www.w3.org/2000/svg" style="" d="M493.4,85.6c0-0.3-0.3-0.3-0.3-0.3c-7.8-5.7-16.5-9.3-26.1-9.3H45c-9.6,0-18.3,3.6-26.1,9.3  c0,0-0.3,0-0.3,0.3c-3.3,1.199-10.499,7.8-13.801,15.601C213.3,310,171,267.7,223.2,320.2c8.399,9,20.099,13.198,31.8,13.198  c11.701,0,23.401-4.199,31.8-13.198c51.601-51.901,9.5-7.8,220.401-219C503.899,93.401,496.7,86.8,493.4,85.6z" fill="#18a7fc" data-original="#18a7fc" class=""></path>
<path xmlns="http://www.w3.org/2000/svg" style="" d="M507.201,101.201C296.3,312.4,338.401,268.299,286.8,320.2c-8.399,9-20.099,13.198-31.8,13.198V76  h212c9.6,0,18.3,3.6,26.1,9.3c0,0,0.3,0,0.3,0.3C496.7,86.8,503.899,93.401,507.201,101.201z" fill="#1689fc" data-original="#1689fc" class=""></path>
<g xmlns="http://www.w3.org/2000/svg">
</g>
<g xmlns="http://www.w3.org/2000/svg">
</g>
<g xmlns="http://www.w3.org/2000/svg">
</g>
<g xmlns="http://www.w3.org/2000/svg">
</g>
<g xmlns="http://www.w3.org/2000/svg">
</g>
<g xmlns="http://www.w3.org/2000/svg">
</g>
<g xmlns="http://www.w3.org/2000/svg">
</g>
<g xmlns="http://www.w3.org/2000/svg">
</g>
<g xmlns="http://www.w3.org/2000/svg">
</g>
<g xmlns="http://www.w3.org/2000/svg">
</g>
<g xmlns="http://www.w3.org/2000/svg">
</g>
<g xmlns="http://www.w3.org/2000/svg">
</g>
<g xmlns="http://www.w3.org/2000/svg">
</g>
<g xmlns="http://www.w3.org/2000/svg">
</g>
<g xmlns="http://www.w3.org/2000/svg">
</g>
</g></svg>