<svg width="888" height="398" viewBox="0 0 888 398" fill="none" xmlns="http://www.w3.org/2000/svg">
<path d="M209 119C209 112.303 207.681 105.671 205.118 99.4831C202.555 93.2955 198.798 87.6733 194.062 82.9376C189.327 78.2018 183.704 74.4451 177.517 71.8821C171.329 69.3192 164.697 68 158 68" stroke="#17DF43" stroke-width="35"/>
<path d="M209 119C209 129.087 206.009 138.947 200.405 147.334C194.801 155.721 186.836 162.258 177.517 166.118C168.198 169.978 157.943 170.988 148.05 169.02C138.157 167.052 129.07 162.195 121.938 155.062C114.805 147.93 109.948 138.843 107.98 128.95C106.012 119.057 107.022 108.802 110.882 99.4831C114.742 90.1641 121.279 82.199 129.666 76.595C138.053 70.9911 147.913 68 158 68" stroke="#EAE2E2" stroke-width="35"/>
<path d="M128.023 236H108.562V231.906L115.55 224.841C116.959 223.394 118.089 222.188 118.94 221.223C119.803 220.245 120.425 219.356 120.806 218.557C121.2 217.757 121.396 216.9 121.396 215.986C121.396 214.881 121.085 214.056 120.463 213.51C119.854 212.952 119.035 212.672 118.007 212.672C116.928 212.672 115.88 212.92 114.865 213.415C113.849 213.91 112.789 214.615 111.685 215.529L108.485 211.739C109.285 211.054 110.129 210.406 111.018 209.797C111.919 209.188 112.96 208.699 114.141 208.331C115.334 207.95 116.763 207.759 118.426 207.759C120.254 207.759 121.822 208.089 123.129 208.75C124.45 209.41 125.465 210.311 126.176 211.454C126.887 212.583 127.243 213.866 127.243 215.3C127.243 216.836 126.938 218.239 126.329 219.509C125.719 220.778 124.831 222.035 123.663 223.279C122.507 224.523 121.111 225.901 119.473 227.412L115.893 230.782V231.049H128.023V236ZM141.011 218.214C142.712 218.214 144.223 218.538 145.543 219.185C146.876 219.833 147.923 220.785 148.685 222.042C149.447 223.298 149.828 224.847 149.828 226.688C149.828 228.694 149.409 230.427 148.571 231.887C147.746 233.334 146.508 234.445 144.857 235.219C143.22 235.994 141.176 236.381 138.726 236.381C137.266 236.381 135.888 236.254 134.593 236C133.311 235.759 132.188 235.384 131.223 234.876V229.792C132.188 230.3 133.343 230.731 134.688 231.087C136.047 231.43 137.323 231.601 138.516 231.601C139.684 231.601 140.668 231.449 141.468 231.144C142.268 230.827 142.871 230.344 143.277 229.697C143.696 229.037 143.905 228.199 143.905 227.183C143.905 225.825 143.448 224.784 142.534 224.06C141.62 223.336 140.217 222.975 138.326 222.975C137.602 222.975 136.847 223.044 136.06 223.184C135.285 223.324 134.638 223.463 134.117 223.603L131.775 222.346L132.822 208.159H147.923V213.148H137.983L137.469 218.614C137.9 218.525 138.37 218.436 138.878 218.347C139.386 218.258 140.097 218.214 141.011 218.214ZM163.066 216.012L155.615 236H151.828L159.279 216.012H163.066ZM173.033 236H170.818V221.836C170.818 221.298 170.818 220.838 170.818 220.455C170.827 220.063 170.837 219.708 170.846 219.389C170.864 219.061 170.887 218.728 170.914 218.391C170.632 218.682 170.367 218.933 170.121 219.143C169.875 219.343 169.57 219.594 169.205 219.895L166.922 221.727L165.732 220.182L171.146 216.012H173.033V236ZM193.814 225.979C193.814 227.601 193.691 229.05 193.445 230.326C193.199 231.602 192.812 232.682 192.283 233.566C191.755 234.451 191.071 235.125 190.232 235.59C189.394 236.046 188.387 236.273 187.211 236.273C185.725 236.273 184.495 235.868 183.52 235.057C182.553 234.245 181.829 233.074 181.346 231.543C180.872 230.003 180.635 228.148 180.635 225.979C180.635 223.846 180.849 222.014 181.277 220.482C181.715 218.942 182.417 217.762 183.383 216.941C184.349 216.112 185.625 215.697 187.211 215.697C188.715 215.697 189.954 216.107 190.93 216.928C191.905 217.739 192.63 218.915 193.104 220.455C193.577 221.986 193.814 223.827 193.814 225.979ZM182.918 225.979C182.918 227.838 183.059 229.387 183.342 230.627C183.624 231.867 184.08 232.796 184.709 233.416C185.347 234.027 186.181 234.332 187.211 234.332C188.241 234.332 189.07 234.027 189.699 233.416C190.337 232.805 190.798 231.88 191.08 230.641C191.372 229.401 191.518 227.847 191.518 225.979C191.518 224.146 191.376 222.615 191.094 221.385C190.811 220.145 190.355 219.215 189.727 218.596C189.098 217.967 188.259 217.652 187.211 217.652C186.163 217.652 185.324 217.967 184.695 218.596C184.066 219.215 183.611 220.145 183.328 221.385C183.055 222.615 182.918 224.146 182.918 225.979ZM209.838 225.979C209.838 227.601 209.715 229.05 209.469 230.326C209.223 231.602 208.835 232.682 208.307 233.566C207.778 234.451 207.094 235.125 206.256 235.59C205.417 236.046 204.41 236.273 203.234 236.273C201.749 236.273 200.518 235.868 199.543 235.057C198.577 234.245 197.852 233.074 197.369 231.543C196.895 230.003 196.658 228.148 196.658 225.979C196.658 223.846 196.872 222.014 197.301 220.482C197.738 218.942 198.44 217.762 199.406 216.941C200.372 216.112 201.648 215.697 203.234 215.697C204.738 215.697 205.978 216.107 206.953 216.928C207.928 217.739 208.653 218.915 209.127 220.455C209.601 221.986 209.838 223.827 209.838 225.979ZM198.941 225.979C198.941 227.838 199.083 229.387 199.365 230.627C199.648 231.867 200.104 232.796 200.732 233.416C201.37 234.027 202.204 234.332 203.234 234.332C204.264 234.332 205.094 234.027 205.723 233.416C206.361 232.805 206.821 231.88 207.104 230.641C207.395 229.401 207.541 227.847 207.541 225.979C207.541 224.146 207.4 222.615 207.117 221.385C206.835 220.145 206.379 219.215 205.75 218.596C205.121 217.967 204.283 217.652 203.234 217.652C202.186 217.652 201.348 217.967 200.719 218.596C200.09 219.215 199.634 220.145 199.352 221.385C199.078 222.615 198.941 224.146 198.941 225.979Z" fill="black"/>
<path d="M134.035 282H119.234V256.301H134.035V260.766H124.684V266.408H133.385V270.873H124.684V277.5H134.035V282ZM147.043 261.943C149.68 261.943 151.701 262.518 153.107 263.666C154.514 264.814 155.217 266.561 155.217 268.904V282H151.473L150.436 279.328H150.295C149.732 280.031 149.158 280.605 148.572 281.051C147.986 281.496 147.312 281.824 146.551 282.035C145.789 282.246 144.863 282.352 143.773 282.352C142.613 282.352 141.57 282.129 140.645 281.684C139.73 281.238 139.01 280.559 138.482 279.645C137.955 278.719 137.691 277.547 137.691 276.129C137.691 274.043 138.424 272.508 139.889 271.523C141.354 270.527 143.551 269.977 146.48 269.871L149.891 269.766V268.904C149.891 267.873 149.621 267.117 149.082 266.637C148.543 266.156 147.793 265.916 146.832 265.916C145.883 265.916 144.951 266.051 144.037 266.32C143.123 266.59 142.209 266.93 141.295 267.34L139.52 263.719C140.562 263.168 141.729 262.734 143.018 262.418C144.318 262.102 145.66 261.943 147.043 261.943ZM149.891 272.895L147.816 272.965C146.082 273.012 144.875 273.322 144.195 273.896C143.527 274.471 143.193 275.227 143.193 276.164C143.193 276.984 143.434 277.57 143.914 277.922C144.395 278.262 145.021 278.432 145.795 278.432C146.943 278.432 147.91 278.092 148.695 277.412C149.492 276.732 149.891 275.766 149.891 274.512V272.895ZM174.465 276.164C174.465 277.5 174.148 278.631 173.516 279.557C172.895 280.471 171.963 281.168 170.721 281.648C169.479 282.117 167.932 282.352 166.08 282.352C164.709 282.352 163.531 282.264 162.547 282.088C161.574 281.912 160.59 281.619 159.594 281.209V276.779C160.66 277.26 161.803 277.658 163.021 277.975C164.252 278.279 165.33 278.432 166.256 278.432C167.299 278.432 168.043 278.279 168.488 277.975C168.945 277.658 169.174 277.248 169.174 276.744C169.174 276.416 169.08 276.123 168.893 275.865C168.717 275.596 168.33 275.297 167.732 274.969C167.135 274.629 166.197 274.189 164.92 273.65C163.689 273.135 162.676 272.613 161.879 272.086C161.094 271.559 160.508 270.938 160.121 270.223C159.746 269.496 159.559 268.576 159.559 267.463C159.559 265.646 160.262 264.281 161.668 263.367C163.086 262.441 164.979 261.979 167.346 261.979C168.564 261.979 169.725 262.102 170.826 262.348C171.939 262.594 173.082 262.986 174.254 263.525L172.637 267.393C171.664 266.971 170.744 266.625 169.877 266.355C169.021 266.086 168.148 265.951 167.258 265.951C166.473 265.951 165.881 266.057 165.482 266.268C165.084 266.479 164.885 266.801 164.885 267.234C164.885 267.551 164.984 267.832 165.184 268.078C165.395 268.324 165.793 268.6 166.379 268.904C166.977 269.197 167.85 269.578 168.998 270.047C170.111 270.504 171.078 270.984 171.898 271.488C172.719 271.98 173.352 272.596 173.797 273.334C174.242 274.061 174.465 275.004 174.465 276.164ZM175.836 262.348H181.707L185.416 273.404C185.533 273.756 185.633 274.113 185.715 274.477C185.797 274.84 185.867 275.215 185.926 275.602C185.984 275.988 186.031 276.393 186.066 276.814H186.172C186.242 276.182 186.336 275.59 186.453 275.039C186.582 274.488 186.74 273.943 186.928 273.404L190.566 262.348H196.314L188 284.514C187.496 285.873 186.84 287.004 186.031 287.906C185.223 288.82 184.291 289.506 183.236 289.963C182.193 290.42 181.045 290.648 179.791 290.648C179.182 290.648 178.654 290.613 178.209 290.543C177.764 290.484 177.383 290.42 177.066 290.35V286.096C177.312 286.154 177.623 286.207 177.998 286.254C178.373 286.301 178.766 286.324 179.176 286.324C179.926 286.324 180.57 286.166 181.109 285.85C181.648 285.533 182.1 285.105 182.463 284.566C182.826 284.039 183.113 283.459 183.324 282.826L183.641 281.859L175.836 262.348Z" fill="black"/>
<path d="M94.0215 324H92.2549L87.623 317.751L86.252 318.981V324H84.7578V311.15H86.252V317.558C86.5859 317.177 86.9287 316.799 87.2803 316.424C87.6318 316.043 87.9805 315.659 88.3262 315.272L92.0791 311.15H93.8281L88.7129 316.723L94.0215 324ZM99.2686 314.191C100.089 314.191 100.792 314.373 101.378 314.736C101.964 315.1 102.412 315.609 102.723 316.266C103.033 316.916 103.188 317.678 103.188 318.551V319.456H96.5352C96.5527 320.587 96.834 321.448 97.3789 322.04C97.9238 322.632 98.6914 322.928 99.6816 322.928C100.291 322.928 100.83 322.872 101.299 322.761C101.768 322.649 102.254 322.485 102.758 322.269V323.552C102.271 323.769 101.788 323.927 101.308 324.026C100.833 324.126 100.271 324.176 99.6201 324.176C98.6943 324.176 97.8857 323.988 97.1943 323.613C96.5088 323.232 95.9756 322.676 95.5947 321.943C95.2139 321.211 95.0234 320.314 95.0234 319.254C95.0234 318.217 95.1963 317.32 95.542 316.564C95.8936 315.803 96.3857 315.217 97.0186 314.807C97.6572 314.396 98.4072 314.191 99.2686 314.191ZM99.251 315.387C98.4717 315.387 97.8506 315.642 97.3877 316.151C96.9248 316.661 96.6494 317.373 96.5615 318.287H101.659C101.653 317.713 101.562 317.209 101.387 316.775C101.217 316.336 100.956 315.996 100.604 315.756C100.253 315.51 99.8018 315.387 99.251 315.387ZM104.146 314.367H105.711L107.838 319.957C107.961 320.285 108.075 320.602 108.181 320.906C108.286 321.205 108.38 321.492 108.462 321.768C108.544 322.043 108.608 322.31 108.655 322.567H108.717C108.799 322.274 108.916 321.891 109.068 321.416C109.221 320.936 109.385 320.446 109.561 319.948L111.573 314.367H113.146L108.954 325.415C108.731 326.007 108.471 326.522 108.172 326.962C107.879 327.401 107.521 327.738 107.1 327.973C106.678 328.213 106.168 328.333 105.57 328.333C105.295 328.333 105.052 328.315 104.841 328.28C104.63 328.251 104.448 328.216 104.296 328.175V327.006C104.425 327.035 104.58 327.062 104.762 327.085C104.949 327.108 105.143 327.12 105.342 327.12C105.705 327.12 106.019 327.05 106.282 326.909C106.552 326.774 106.783 326.575 106.977 326.312C107.17 326.048 107.337 325.734 107.478 325.371L108.005 324.018L104.146 314.367ZM122.524 323.982L120.811 318.375C120.734 318.135 120.661 317.9 120.591 317.672C120.526 317.438 120.465 317.215 120.406 317.004C120.354 316.787 120.304 316.588 120.257 316.406C120.216 316.219 120.181 316.058 120.151 315.923H120.09C120.066 316.058 120.034 316.219 119.993 316.406C119.952 316.588 119.902 316.787 119.844 317.004C119.791 317.221 119.732 317.449 119.668 317.689C119.604 317.924 119.53 318.161 119.448 318.401L117.655 323.982H116.012L113.357 314.35H114.869L116.258 319.667C116.352 320.019 116.439 320.367 116.521 320.713C116.609 321.053 116.683 321.375 116.741 321.68C116.806 321.979 116.853 322.239 116.882 322.462H116.952C116.987 322.315 117.025 322.14 117.066 321.935C117.113 321.729 117.163 321.513 117.216 321.284C117.274 321.05 117.336 320.818 117.4 320.59C117.465 320.355 117.529 320.136 117.594 319.931L119.369 314.35H120.942L122.656 319.922C122.744 320.203 122.829 320.496 122.911 320.801C122.999 321.105 123.078 321.401 123.148 321.688C123.219 321.97 123.269 322.222 123.298 322.444H123.368C123.392 322.245 123.436 321.999 123.5 321.706C123.564 321.413 123.638 321.091 123.72 320.739C123.808 320.388 123.898 320.03 123.992 319.667L125.398 314.35H126.884L124.221 323.982H122.524ZM136.947 319.166C136.947 319.957 136.845 320.663 136.64 321.284C136.435 321.905 136.139 322.43 135.752 322.857C135.365 323.285 134.896 323.613 134.346 323.842C133.801 324.064 133.183 324.176 132.491 324.176C131.847 324.176 131.255 324.064 130.716 323.842C130.183 323.613 129.72 323.285 129.327 322.857C128.94 322.43 128.639 321.905 128.422 321.284C128.211 320.663 128.105 319.957 128.105 319.166C128.105 318.111 128.284 317.215 128.642 316.477C128.999 315.732 129.509 315.167 130.171 314.78C130.839 314.388 131.633 314.191 132.553 314.191C133.432 314.191 134.199 314.388 134.855 314.78C135.518 315.173 136.03 315.741 136.394 316.485C136.763 317.224 136.947 318.117 136.947 319.166ZM129.617 319.166C129.617 319.939 129.72 320.61 129.925 321.179C130.13 321.747 130.446 322.187 130.874 322.497C131.302 322.808 131.853 322.963 132.526 322.963C133.194 322.963 133.742 322.808 134.17 322.497C134.604 322.187 134.923 321.747 135.128 321.179C135.333 320.61 135.436 319.939 135.436 319.166C135.436 318.398 135.333 317.736 135.128 317.18C134.923 316.617 134.606 316.184 134.179 315.879C133.751 315.574 133.197 315.422 132.518 315.422C131.516 315.422 130.78 315.753 130.312 316.415C129.849 317.077 129.617 317.994 129.617 319.166ZM143.847 314.191C144.04 314.191 144.242 314.203 144.453 314.227C144.664 314.244 144.852 314.271 145.016 314.306L144.831 315.659C144.673 315.618 144.497 315.586 144.304 315.562C144.11 315.539 143.929 315.527 143.759 315.527C143.372 315.527 143.006 315.606 142.66 315.765C142.32 315.917 142.021 316.14 141.764 316.433C141.506 316.72 141.304 317.068 141.157 317.479C141.011 317.883 140.938 318.334 140.938 318.832V324H139.47V314.367H140.683L140.841 316.143H140.902C141.102 315.785 141.342 315.46 141.623 315.167C141.904 314.868 142.229 314.631 142.599 314.455C142.974 314.279 143.39 314.191 143.847 314.191ZM150.263 324.176C149.044 324.176 148.077 323.76 147.362 322.928C146.653 322.096 146.299 320.859 146.299 319.219C146.299 317.561 146.662 316.31 147.389 315.466C148.115 314.616 149.082 314.191 150.289 314.191C150.799 314.191 151.244 314.259 151.625 314.394C152.006 314.528 152.334 314.71 152.609 314.938C152.885 315.161 153.116 315.416 153.304 315.703H153.409C153.386 315.521 153.362 315.272 153.339 314.956C153.315 314.64 153.304 314.382 153.304 314.183V310.324H154.763V324H153.585L153.365 322.629H153.304C153.122 322.916 152.891 323.177 152.609 323.411C152.334 323.646 152.003 323.833 151.616 323.974C151.235 324.108 150.784 324.176 150.263 324.176ZM150.491 322.963C151.522 322.963 152.252 322.67 152.68 322.084C153.107 321.498 153.321 320.628 153.321 319.474V319.21C153.321 317.985 153.116 317.045 152.706 316.389C152.302 315.732 151.563 315.404 150.491 315.404C149.595 315.404 148.924 315.75 148.479 316.441C148.033 317.127 147.811 318.064 147.811 319.254C147.811 320.438 148.03 321.352 148.47 321.996C148.915 322.641 149.589 322.963 150.491 322.963ZM165.96 324.176C164.741 324.176 163.774 323.76 163.06 322.928C162.351 322.096 161.996 320.859 161.996 319.219C161.996 317.561 162.359 316.31 163.086 315.466C163.812 314.616 164.779 314.191 165.986 314.191C166.496 314.191 166.941 314.259 167.322 314.394C167.703 314.528 168.031 314.71 168.307 314.938C168.582 315.161 168.813 315.416 169.001 315.703H169.106C169.083 315.521 169.06 315.272 169.036 314.956C169.013 314.64 169.001 314.382 169.001 314.183V310.324H170.46V324H169.282L169.062 322.629H169.001C168.819 322.916 168.588 323.177 168.307 323.411C168.031 323.646 167.7 323.833 167.313 323.974C166.933 324.108 166.481 324.176 165.96 324.176ZM166.188 322.963C167.22 322.963 167.949 322.67 168.377 322.084C168.805 321.498 169.019 320.628 169.019 319.474V319.21C169.019 317.985 168.813 317.045 168.403 316.389C167.999 315.732 167.261 315.404 166.188 315.404C165.292 315.404 164.621 315.75 164.176 316.441C163.73 317.127 163.508 318.064 163.508 319.254C163.508 320.438 163.728 321.352 164.167 321.996C164.612 322.641 165.286 322.963 166.188 322.963ZM175.013 314.367V324H173.554V314.367H175.013ZM174.301 310.764C174.541 310.764 174.746 310.843 174.916 311.001C175.092 311.153 175.18 311.394 175.18 311.722C175.18 312.044 175.092 312.284 174.916 312.442C174.746 312.601 174.541 312.68 174.301 312.68C174.049 312.68 173.838 312.601 173.668 312.442C173.504 312.284 173.422 312.044 173.422 311.722C173.422 311.394 173.504 311.153 173.668 311.001C173.838 310.843 174.049 310.764 174.301 310.764ZM182.396 315.51H179.996V324H178.537V315.51H176.832V314.807L178.537 314.323V313.682C178.537 312.873 178.657 312.217 178.897 311.713C179.138 311.203 179.486 310.828 179.943 310.588C180.4 310.348 180.957 310.228 181.613 310.228C181.982 310.228 182.319 310.26 182.624 310.324C182.935 310.389 183.207 310.462 183.441 310.544L183.063 311.695C182.864 311.631 182.639 311.572 182.387 311.52C182.141 311.461 181.889 311.432 181.631 311.432C181.074 311.432 180.661 311.613 180.392 311.977C180.128 312.334 179.996 312.896 179.996 313.664V314.367H182.396V315.51ZM188.451 315.51H186.052V324H184.593V315.51H182.888V314.807L184.593 314.323V313.682C184.593 312.873 184.713 312.217 184.953 311.713C185.193 311.203 185.542 310.828 185.999 310.588C186.456 310.348 187.013 310.228 187.669 310.228C188.038 310.228 188.375 310.26 188.68 310.324C188.99 310.389 189.263 310.462 189.497 310.544L189.119 311.695C188.92 311.631 188.694 311.572 188.442 311.52C188.196 311.461 187.944 311.432 187.687 311.432C187.13 311.432 186.717 311.613 186.447 311.977C186.184 312.334 186.052 312.896 186.052 313.664V314.367H188.451V315.51ZM191.677 314.367V324H190.218V314.367H191.677ZM190.965 310.764C191.205 310.764 191.41 310.843 191.58 311.001C191.756 311.153 191.844 311.394 191.844 311.722C191.844 312.044 191.756 312.284 191.58 312.442C191.41 312.601 191.205 312.68 190.965 312.68C190.713 312.68 190.502 312.601 190.332 312.442C190.168 312.284 190.086 312.044 190.086 311.722C190.086 311.394 190.168 311.153 190.332 311.001C190.502 310.843 190.713 310.764 190.965 310.764ZM198.611 324.176C197.744 324.176 196.979 323.997 196.317 323.64C195.655 323.282 195.14 322.737 194.771 322.005C194.401 321.272 194.217 320.35 194.217 319.236C194.217 318.07 194.41 317.118 194.797 316.38C195.189 315.636 195.729 315.085 196.414 314.728C197.1 314.37 197.879 314.191 198.752 314.191C199.232 314.191 199.695 314.241 200.141 314.341C200.592 314.435 200.961 314.555 201.248 314.701L200.809 315.923C200.516 315.806 200.176 315.7 199.789 315.606C199.408 315.513 199.051 315.466 198.717 315.466C198.049 315.466 197.492 315.609 197.047 315.896C196.607 316.184 196.276 316.605 196.054 317.162C195.837 317.719 195.729 318.404 195.729 319.219C195.729 319.998 195.834 320.663 196.045 321.214C196.262 321.765 196.581 322.187 197.003 322.479C197.431 322.767 197.964 322.91 198.603 322.91C199.112 322.91 199.572 322.857 199.982 322.752C200.393 322.641 200.765 322.512 201.099 322.365V323.666C200.776 323.83 200.416 323.956 200.018 324.044C199.625 324.132 199.156 324.176 198.611 324.176ZM211.338 314.367V324H210.143L209.932 322.646H209.853C209.653 322.98 209.396 323.262 209.079 323.49C208.763 323.719 208.405 323.889 208.007 324C207.614 324.117 207.195 324.176 206.75 324.176C205.988 324.176 205.35 324.053 204.834 323.807C204.318 323.561 203.929 323.18 203.665 322.664C203.407 322.148 203.278 321.486 203.278 320.678V314.367H204.755V320.572C204.755 321.375 204.937 321.976 205.3 322.374C205.663 322.767 206.217 322.963 206.961 322.963C207.676 322.963 208.244 322.828 208.666 322.559C209.094 322.289 209.401 321.894 209.589 321.372C209.776 320.845 209.87 320.2 209.87 319.438V314.367H211.338ZM215.891 324H214.423V310.324H215.891V324ZM222.087 322.98C222.327 322.98 222.573 322.96 222.825 322.919C223.077 322.878 223.282 322.828 223.44 322.77V323.903C223.271 323.979 223.033 324.044 222.729 324.097C222.43 324.149 222.137 324.176 221.85 324.176C221.34 324.176 220.877 324.088 220.461 323.912C220.045 323.73 219.711 323.426 219.459 322.998C219.213 322.57 219.09 321.979 219.09 321.223V315.51H217.719V314.798L219.099 314.227L219.679 312.135H220.558V314.367H223.379V315.51H220.558V321.179C220.558 321.782 220.695 322.233 220.971 322.532C221.252 322.831 221.624 322.98 222.087 322.98ZM223.871 314.367H225.436L227.562 319.957C227.686 320.285 227.8 320.602 227.905 320.906C228.011 321.205 228.104 321.492 228.187 321.768C228.269 322.043 228.333 322.31 228.38 322.567H228.441C228.523 322.274 228.641 321.891 228.793 321.416C228.945 320.936 229.109 320.446 229.285 319.948L231.298 314.367H232.871L228.679 325.415C228.456 326.007 228.195 326.522 227.896 326.962C227.604 327.401 227.246 327.738 226.824 327.973C226.402 328.213 225.893 328.333 225.295 328.333C225.02 328.333 224.776 328.315 224.565 328.28C224.354 328.251 224.173 328.216 224.021 328.175V327.006C224.149 327.035 224.305 327.062 224.486 327.085C224.674 327.108 224.867 327.12 225.066 327.12C225.43 327.12 225.743 327.05 226.007 326.909C226.276 326.774 226.508 326.575 226.701 326.312C226.895 326.048 227.062 325.734 227.202 325.371L227.729 324.018L223.871 314.367Z" fill="#ACACAC"/>
<g filter="url(#filter0_d_116_22)">
<rect x="28" y="13" width="258" height="344" rx="13" stroke="#F1F1F1" stroke-width="2" shape-rendering="crispEdges"/>
</g>
<path d="M497 119C497 110.951 495.095 103.016 491.44 95.844C487.785 88.6722 482.485 82.4673 475.972 77.7368C469.46 73.0063 461.92 69.8844 453.97 68.6266C446.019 67.3687 437.884 68.0105 430.229 70.4996C422.575 72.9887 415.618 77.2543 409.928 82.9475C404.237 88.6408 399.976 95.6001 397.491 103.256C395.006 110.912 394.369 119.048 395.631 126.998C396.893 134.947 400.019 142.485 404.753 148.995" stroke="#F1C40F" stroke-width="35"/>
<path d="M497 119C497 130.072 493.397 140.842 486.736 149.686C480.074 158.529 470.716 164.964 460.074 168.02C449.432 171.075 438.086 170.584 427.747 166.622C417.409 162.659 408.641 155.44 402.768 146.055" stroke="#EAE2E2" stroke-width="35"/>
<path d="M403.395 211.23C404.616 211.23 405.701 211.463 406.648 211.928C407.605 212.393 408.357 213.076 408.904 213.979C409.451 214.881 409.725 215.993 409.725 217.314C409.725 218.755 409.424 219.999 408.822 221.047C408.23 222.086 407.341 222.883 406.156 223.439C404.98 223.995 403.513 224.273 401.754 224.273C400.706 224.273 399.717 224.182 398.787 224C397.867 223.827 397.06 223.558 396.367 223.193V219.543C397.06 219.908 397.889 220.217 398.855 220.473C399.831 220.719 400.747 220.842 401.604 220.842C402.442 220.842 403.148 220.732 403.723 220.514C404.297 220.286 404.73 219.939 405.021 219.475C405.322 219.001 405.473 218.399 405.473 217.67C405.473 216.695 405.145 215.947 404.488 215.428C403.832 214.908 402.825 214.648 401.467 214.648C400.947 214.648 400.405 214.699 399.84 214.799C399.284 214.899 398.819 214.999 398.445 215.1L396.764 214.197L397.516 204.012H408.357V207.594H401.221L400.852 211.518C401.161 211.454 401.499 211.39 401.863 211.326C402.228 211.262 402.738 211.23 403.395 211.23ZM414.127 224L421.633 207.566H411.775V204.012H426.117V206.664L418.557 224H414.127ZM438.477 204.012L431.025 224H427.238L434.689 204.012H438.477ZM448.443 224H446.229V209.836C446.229 209.298 446.229 208.838 446.229 208.455C446.238 208.063 446.247 207.708 446.256 207.389C446.274 207.061 446.297 206.728 446.324 206.391C446.042 206.682 445.777 206.933 445.531 207.143C445.285 207.343 444.98 207.594 444.615 207.895L442.332 209.727L441.143 208.182L446.557 204.012H448.443V224ZM469.225 213.979C469.225 215.601 469.102 217.05 468.855 218.326C468.609 219.602 468.222 220.682 467.693 221.566C467.165 222.451 466.481 223.125 465.643 223.59C464.804 224.046 463.797 224.273 462.621 224.273C461.135 224.273 459.905 223.868 458.93 223.057C457.964 222.245 457.239 221.074 456.756 219.543C456.282 218.003 456.045 216.148 456.045 213.979C456.045 211.846 456.259 210.014 456.688 208.482C457.125 206.942 457.827 205.762 458.793 204.941C459.759 204.112 461.035 203.697 462.621 203.697C464.125 203.697 465.365 204.107 466.34 204.928C467.315 205.739 468.04 206.915 468.514 208.455C468.988 209.986 469.225 211.827 469.225 213.979ZM458.328 213.979C458.328 215.838 458.469 217.387 458.752 218.627C459.035 219.867 459.49 220.796 460.119 221.416C460.757 222.027 461.591 222.332 462.621 222.332C463.651 222.332 464.48 222.027 465.109 221.416C465.747 220.805 466.208 219.88 466.49 218.641C466.782 217.401 466.928 215.847 466.928 213.979C466.928 212.146 466.786 210.615 466.504 209.385C466.221 208.145 465.766 207.215 465.137 206.596C464.508 205.967 463.669 205.652 462.621 205.652C461.573 205.652 460.734 205.967 460.105 206.596C459.477 207.215 459.021 208.145 458.738 209.385C458.465 210.615 458.328 212.146 458.328 213.979ZM485.248 213.979C485.248 215.601 485.125 217.05 484.879 218.326C484.633 219.602 484.245 220.682 483.717 221.566C483.188 222.451 482.505 223.125 481.666 223.59C480.827 224.046 479.82 224.273 478.645 224.273C477.159 224.273 475.928 223.868 474.953 223.057C473.987 222.245 473.262 221.074 472.779 219.543C472.305 218.003 472.068 216.148 472.068 213.979C472.068 211.846 472.283 210.014 472.711 208.482C473.148 206.942 473.85 205.762 474.816 204.941C475.783 204.112 477.059 203.697 478.645 203.697C480.148 203.697 481.388 204.107 482.363 204.928C483.339 205.739 484.063 206.915 484.537 208.455C485.011 209.986 485.248 211.827 485.248 213.979ZM474.352 213.979C474.352 215.838 474.493 217.387 474.775 218.627C475.058 219.867 475.514 220.796 476.143 221.416C476.781 222.027 477.615 222.332 478.645 222.332C479.674 222.332 480.504 222.027 481.133 221.416C481.771 220.805 482.231 219.88 482.514 218.641C482.805 217.401 482.951 215.847 482.951 213.979C482.951 212.146 482.81 210.615 482.527 209.385C482.245 208.145 481.789 207.215 481.16 206.596C480.531 205.967 479.693 205.652 478.645 205.652C477.596 205.652 476.758 205.967 476.129 206.596C475.5 207.215 475.044 208.145 474.762 209.385C474.488 210.615 474.352 212.146 474.352 213.979Z" fill="black"/>
<path d="M382.443 252.301C385.76 252.301 388.18 253.016 389.703 254.445C391.227 255.863 391.988 257.82 391.988 260.316C391.988 261.441 391.818 262.52 391.479 263.551C391.139 264.57 390.582 265.479 389.809 266.275C389.047 267.072 388.027 267.705 386.75 268.174C385.473 268.631 383.896 268.859 382.021 268.859H379.684V278H374.234V252.301H382.443ZM382.162 256.766H379.684V264.395H381.477C382.496 264.395 383.381 264.26 384.131 263.99C384.881 263.721 385.461 263.299 385.871 262.725C386.281 262.15 386.486 261.412 386.486 260.51C386.486 259.244 386.135 258.307 385.432 257.697C384.729 257.076 383.639 256.766 382.162 256.766ZM414.277 268.139C414.277 269.779 414.055 271.232 413.609 272.498C413.176 273.764 412.537 274.836 411.693 275.715C410.861 276.582 409.854 277.238 408.67 277.684C407.498 278.129 406.174 278.352 404.697 278.352C403.314 278.352 402.043 278.129 400.883 277.684C399.734 277.238 398.732 276.582 397.877 275.715C397.033 274.836 396.377 273.764 395.908 272.498C395.451 271.232 395.223 269.779 395.223 268.139C395.223 265.959 395.609 264.113 396.383 262.602C397.156 261.09 398.258 259.941 399.688 259.156C401.117 258.371 402.822 257.979 404.803 257.979C406.643 257.979 408.271 258.371 409.689 259.156C411.119 259.941 412.238 261.09 413.047 262.602C413.867 264.113 414.277 265.959 414.277 268.139ZM400.689 268.139C400.689 269.428 400.83 270.512 401.111 271.391C401.393 272.27 401.832 272.932 402.43 273.377C403.027 273.822 403.807 274.045 404.768 274.045C405.717 274.045 406.484 273.822 407.07 273.377C407.668 272.932 408.102 272.27 408.371 271.391C408.652 270.512 408.793 269.428 408.793 268.139C408.793 266.838 408.652 265.76 408.371 264.904C408.102 264.037 407.668 263.387 407.07 262.953C406.473 262.52 405.693 262.303 404.732 262.303C403.314 262.303 402.283 262.789 401.639 263.762C401.006 264.734 400.689 266.193 400.689 268.139ZM432.418 272.164C432.418 273.5 432.102 274.631 431.469 275.557C430.848 276.471 429.916 277.168 428.674 277.648C427.432 278.117 425.885 278.352 424.033 278.352C422.662 278.352 421.484 278.264 420.5 278.088C419.527 277.912 418.543 277.619 417.547 277.209V272.779C418.613 273.26 419.756 273.658 420.975 273.975C422.205 274.279 423.283 274.432 424.209 274.432C425.252 274.432 425.996 274.279 426.441 273.975C426.898 273.658 427.127 273.248 427.127 272.744C427.127 272.416 427.033 272.123 426.846 271.865C426.67 271.596 426.283 271.297 425.686 270.969C425.088 270.629 424.15 270.189 422.873 269.65C421.643 269.135 420.629 268.613 419.832 268.086C419.047 267.559 418.461 266.938 418.074 266.223C417.699 265.496 417.512 264.576 417.512 263.463C417.512 261.646 418.215 260.281 419.621 259.367C421.039 258.441 422.932 257.979 425.299 257.979C426.518 257.979 427.678 258.102 428.779 258.348C429.893 258.594 431.035 258.986 432.207 259.525L430.59 263.393C429.617 262.971 428.697 262.625 427.83 262.355C426.975 262.086 426.102 261.951 425.211 261.951C424.426 261.951 423.834 262.057 423.436 262.268C423.037 262.479 422.838 262.801 422.838 263.234C422.838 263.551 422.938 263.832 423.137 264.078C423.348 264.324 423.746 264.6 424.332 264.904C424.93 265.197 425.803 265.578 426.951 266.047C428.064 266.504 429.031 266.984 429.852 267.488C430.672 267.98 431.305 268.596 431.75 269.334C432.195 270.061 432.418 271.004 432.418 272.164ZM450.312 272.164C450.312 273.5 449.996 274.631 449.363 275.557C448.742 276.471 447.811 277.168 446.568 277.648C445.326 278.117 443.779 278.352 441.928 278.352C440.557 278.352 439.379 278.264 438.395 278.088C437.422 277.912 436.438 277.619 435.441 277.209V272.779C436.508 273.26 437.65 273.658 438.869 273.975C440.1 274.279 441.178 274.432 442.104 274.432C443.146 274.432 443.891 274.279 444.336 273.975C444.793 273.658 445.021 273.248 445.021 272.744C445.021 272.416 444.928 272.123 444.74 271.865C444.564 271.596 444.178 271.297 443.58 270.969C442.982 270.629 442.045 270.189 440.768 269.65C439.537 269.135 438.523 268.613 437.727 268.086C436.941 267.559 436.355 266.938 435.969 266.223C435.594 265.496 435.406 264.576 435.406 263.463C435.406 261.646 436.109 260.281 437.516 259.367C438.934 258.441 440.826 257.979 443.193 257.979C444.412 257.979 445.572 258.102 446.674 258.348C447.787 258.594 448.93 258.986 450.102 259.525L448.484 263.393C447.512 262.971 446.592 262.625 445.725 262.355C444.869 262.086 443.996 261.951 443.105 261.951C442.32 261.951 441.729 262.057 441.33 262.268C440.932 262.479 440.732 262.801 440.732 263.234C440.732 263.551 440.832 263.832 441.031 264.078C441.242 264.324 441.641 264.6 442.227 264.904C442.824 265.197 443.697 265.578 444.846 266.047C445.959 266.504 446.926 266.984 447.746 267.488C448.566 267.98 449.199 268.596 449.645 269.334C450.09 270.061 450.312 271.004 450.312 272.164ZM459.857 258.348V278H454.496V258.348H459.857ZM457.186 250.648C457.982 250.648 458.668 250.836 459.242 251.211C459.816 251.574 460.104 252.26 460.104 253.268C460.104 254.264 459.816 254.955 459.242 255.342C458.668 255.717 457.982 255.904 457.186 255.904C456.377 255.904 455.686 255.717 455.111 255.342C454.549 254.955 454.268 254.264 454.268 253.268C454.268 252.26 454.549 251.574 455.111 251.211C455.686 250.836 456.377 250.648 457.186 250.648ZM470.861 250.648V257.012C470.861 257.75 470.838 258.482 470.791 259.209C470.756 259.936 470.709 260.498 470.65 260.896H470.861C471.377 260.088 472.08 259.402 472.971 258.84C473.861 258.266 475.016 257.979 476.434 257.979C478.637 257.979 480.424 258.84 481.795 260.562C483.166 262.285 483.852 264.811 483.852 268.139C483.852 270.377 483.535 272.258 482.902 273.781C482.27 275.293 481.385 276.436 480.248 277.209C479.111 277.971 477.793 278.352 476.293 278.352C474.852 278.352 473.715 278.094 472.883 277.578C472.051 277.062 471.377 276.482 470.861 275.838H470.492L469.596 278H465.5V250.648H470.861ZM474.711 262.268C473.773 262.268 473.029 262.461 472.479 262.848C471.928 263.234 471.523 263.814 471.266 264.588C471.02 265.361 470.885 266.34 470.861 267.523V268.104C470.861 270.014 471.143 271.479 471.705 272.498C472.268 273.506 473.293 274.01 474.781 274.01C475.883 274.01 476.756 273.5 477.4 272.48C478.057 271.461 478.385 269.99 478.385 268.068C478.385 266.146 478.057 264.699 477.4 263.727C476.744 262.754 475.848 262.268 474.711 262.268ZM493.643 278H488.281V250.648H493.643V278ZM507.389 257.979C509.205 257.979 510.77 258.33 512.082 259.033C513.395 259.725 514.408 260.732 515.123 262.057C515.838 263.381 516.195 264.998 516.195 266.908V269.51H503.521C503.58 271.021 504.031 272.211 504.875 273.078C505.73 273.934 506.914 274.361 508.426 274.361C509.68 274.361 510.828 274.232 511.871 273.975C512.914 273.717 513.986 273.33 515.088 272.814V276.963C514.115 277.443 513.096 277.795 512.029 278.018C510.975 278.24 509.691 278.352 508.18 278.352C506.211 278.352 504.465 277.988 502.941 277.262C501.43 276.535 500.24 275.428 499.373 273.939C498.518 272.451 498.09 270.576 498.09 268.314C498.09 266.018 498.477 264.107 499.25 262.584C500.035 261.049 501.125 259.9 502.52 259.139C503.914 258.365 505.537 257.979 507.389 257.979ZM507.424 261.793C506.381 261.793 505.514 262.127 504.822 262.795C504.143 263.463 503.75 264.512 503.645 265.941H511.168C511.156 265.145 511.01 264.436 510.729 263.814C510.459 263.193 510.049 262.701 509.498 262.338C508.959 261.975 508.268 261.793 507.424 261.793Z" fill="black"/>
<path d="M382.021 324H380.255L375.623 317.751L374.252 318.981V324H372.758V311.15H374.252V317.558C374.586 317.177 374.929 316.799 375.28 316.424C375.632 316.043 375.98 315.659 376.326 315.272L380.079 311.15H381.828L376.713 316.723L382.021 324ZM387.269 314.191C388.089 314.191 388.792 314.373 389.378 314.736C389.964 315.1 390.412 315.609 390.723 316.266C391.033 316.916 391.188 317.678 391.188 318.551V319.456H384.535C384.553 320.587 384.834 321.448 385.379 322.04C385.924 322.632 386.691 322.928 387.682 322.928C388.291 322.928 388.83 322.872 389.299 322.761C389.768 322.649 390.254 322.485 390.758 322.269V323.552C390.271 323.769 389.788 323.927 389.308 324.026C388.833 324.126 388.271 324.176 387.62 324.176C386.694 324.176 385.886 323.988 385.194 323.613C384.509 323.232 383.976 322.676 383.595 321.943C383.214 321.211 383.023 320.314 383.023 319.254C383.023 318.217 383.196 317.32 383.542 316.564C383.894 315.803 384.386 315.217 385.019 314.807C385.657 314.396 386.407 314.191 387.269 314.191ZM387.251 315.387C386.472 315.387 385.851 315.642 385.388 316.151C384.925 316.661 384.649 317.373 384.562 318.287H389.659C389.653 317.713 389.562 317.209 389.387 316.775C389.217 316.336 388.956 315.996 388.604 315.756C388.253 315.51 387.802 315.387 387.251 315.387ZM392.146 314.367H393.711L395.838 319.957C395.961 320.285 396.075 320.602 396.181 320.906C396.286 321.205 396.38 321.492 396.462 321.768C396.544 322.043 396.608 322.31 396.655 322.567H396.717C396.799 322.274 396.916 321.891 397.068 321.416C397.221 320.936 397.385 320.446 397.561 319.948L399.573 314.367H401.146L396.954 325.415C396.731 326.007 396.471 326.522 396.172 326.962C395.879 327.401 395.521 327.738 395.1 327.973C394.678 328.213 394.168 328.333 393.57 328.333C393.295 328.333 393.052 328.315 392.841 328.28C392.63 328.251 392.448 328.216 392.296 328.175V327.006C392.425 327.035 392.58 327.062 392.762 327.085C392.949 327.108 393.143 327.12 393.342 327.12C393.705 327.12 394.019 327.05 394.282 326.909C394.552 326.774 394.783 326.575 394.977 326.312C395.17 326.048 395.337 325.734 395.478 325.371L396.005 324.018L392.146 314.367ZM410.524 323.982L408.811 318.375C408.734 318.135 408.661 317.9 408.591 317.672C408.526 317.438 408.465 317.215 408.406 317.004C408.354 316.787 408.304 316.588 408.257 316.406C408.216 316.219 408.181 316.058 408.151 315.923H408.09C408.066 316.058 408.034 316.219 407.993 316.406C407.952 316.588 407.902 316.787 407.844 317.004C407.791 317.221 407.732 317.449 407.668 317.689C407.604 317.924 407.53 318.161 407.448 318.401L405.655 323.982H404.012L401.357 314.35H402.869L404.258 319.667C404.352 320.019 404.439 320.367 404.521 320.713C404.609 321.053 404.683 321.375 404.741 321.68C404.806 321.979 404.853 322.239 404.882 322.462H404.952C404.987 322.315 405.025 322.14 405.066 321.935C405.113 321.729 405.163 321.513 405.216 321.284C405.274 321.05 405.336 320.818 405.4 320.59C405.465 320.355 405.529 320.136 405.594 319.931L407.369 314.35H408.942L410.656 319.922C410.744 320.203 410.829 320.496 410.911 320.801C410.999 321.105 411.078 321.401 411.148 321.688C411.219 321.97 411.269 322.222 411.298 322.444H411.368C411.392 322.245 411.436 321.999 411.5 321.706C411.564 321.413 411.638 321.091 411.72 320.739C411.808 320.388 411.898 320.03 411.992 319.667L413.398 314.35H414.884L412.221 323.982H410.524ZM424.947 319.166C424.947 319.957 424.845 320.663 424.64 321.284C424.435 321.905 424.139 322.43 423.752 322.857C423.365 323.285 422.896 323.613 422.346 323.842C421.801 324.064 421.183 324.176 420.491 324.176C419.847 324.176 419.255 324.064 418.716 323.842C418.183 323.613 417.72 323.285 417.327 322.857C416.94 322.43 416.639 321.905 416.422 321.284C416.211 320.663 416.105 319.957 416.105 319.166C416.105 318.111 416.284 317.215 416.642 316.477C416.999 315.732 417.509 315.167 418.171 314.78C418.839 314.388 419.633 314.191 420.553 314.191C421.432 314.191 422.199 314.388 422.855 314.78C423.518 315.173 424.03 315.741 424.394 316.485C424.763 317.224 424.947 318.117 424.947 319.166ZM417.617 319.166C417.617 319.939 417.72 320.61 417.925 321.179C418.13 321.747 418.446 322.187 418.874 322.497C419.302 322.808 419.853 322.963 420.526 322.963C421.194 322.963 421.742 322.808 422.17 322.497C422.604 322.187 422.923 321.747 423.128 321.179C423.333 320.61 423.436 319.939 423.436 319.166C423.436 318.398 423.333 317.736 423.128 317.18C422.923 316.617 422.606 316.184 422.179 315.879C421.751 315.574 421.197 315.422 420.518 315.422C419.516 315.422 418.78 315.753 418.312 316.415C417.849 317.077 417.617 317.994 417.617 319.166ZM431.847 314.191C432.04 314.191 432.242 314.203 432.453 314.227C432.664 314.244 432.852 314.271 433.016 314.306L432.831 315.659C432.673 315.618 432.497 315.586 432.304 315.562C432.11 315.539 431.929 315.527 431.759 315.527C431.372 315.527 431.006 315.606 430.66 315.765C430.32 315.917 430.021 316.14 429.764 316.433C429.506 316.72 429.304 317.068 429.157 317.479C429.011 317.883 428.938 318.334 428.938 318.832V324H427.47V314.367H428.683L428.841 316.143H428.902C429.102 315.785 429.342 315.46 429.623 315.167C429.904 314.868 430.229 314.631 430.599 314.455C430.974 314.279 431.39 314.191 431.847 314.191ZM438.263 324.176C437.044 324.176 436.077 323.76 435.362 322.928C434.653 322.096 434.299 320.859 434.299 319.219C434.299 317.561 434.662 316.31 435.389 315.466C436.115 314.616 437.082 314.191 438.289 314.191C438.799 314.191 439.244 314.259 439.625 314.394C440.006 314.528 440.334 314.71 440.609 314.938C440.885 315.161 441.116 315.416 441.304 315.703H441.409C441.386 315.521 441.362 315.272 441.339 314.956C441.315 314.64 441.304 314.382 441.304 314.183V310.324H442.763V324H441.585L441.365 322.629H441.304C441.122 322.916 440.891 323.177 440.609 323.411C440.334 323.646 440.003 323.833 439.616 323.974C439.235 324.108 438.784 324.176 438.263 324.176ZM438.491 322.963C439.522 322.963 440.252 322.67 440.68 322.084C441.107 321.498 441.321 320.628 441.321 319.474V319.21C441.321 317.985 441.116 317.045 440.706 316.389C440.302 315.732 439.563 315.404 438.491 315.404C437.595 315.404 436.924 315.75 436.479 316.441C436.033 317.127 435.811 318.064 435.811 319.254C435.811 320.438 436.03 321.352 436.47 321.996C436.915 322.641 437.589 322.963 438.491 322.963ZM453.96 324.176C452.741 324.176 451.774 323.76 451.06 322.928C450.351 322.096 449.996 320.859 449.996 319.219C449.996 317.561 450.359 316.31 451.086 315.466C451.812 314.616 452.779 314.191 453.986 314.191C454.496 314.191 454.941 314.259 455.322 314.394C455.703 314.528 456.031 314.71 456.307 314.938C456.582 315.161 456.813 315.416 457.001 315.703H457.106C457.083 315.521 457.06 315.272 457.036 314.956C457.013 314.64 457.001 314.382 457.001 314.183V310.324H458.46V324H457.282L457.062 322.629H457.001C456.819 322.916 456.588 323.177 456.307 323.411C456.031 323.646 455.7 323.833 455.313 323.974C454.933 324.108 454.481 324.176 453.96 324.176ZM454.188 322.963C455.22 322.963 455.949 322.67 456.377 322.084C456.805 321.498 457.019 320.628 457.019 319.474V319.21C457.019 317.985 456.813 317.045 456.403 316.389C455.999 315.732 455.261 315.404 454.188 315.404C453.292 315.404 452.621 315.75 452.176 316.441C451.73 317.127 451.508 318.064 451.508 319.254C451.508 320.438 451.728 321.352 452.167 321.996C452.612 322.641 453.286 322.963 454.188 322.963ZM463.013 314.367V324H461.554V314.367H463.013ZM462.301 310.764C462.541 310.764 462.746 310.843 462.916 311.001C463.092 311.153 463.18 311.394 463.18 311.722C463.18 312.044 463.092 312.284 462.916 312.442C462.746 312.601 462.541 312.68 462.301 312.68C462.049 312.68 461.838 312.601 461.668 312.442C461.504 312.284 461.422 312.044 461.422 311.722C461.422 311.394 461.504 311.153 461.668 311.001C461.838 310.843 462.049 310.764 462.301 310.764ZM470.396 315.51H467.996V324H466.537V315.51H464.832V314.807L466.537 314.323V313.682C466.537 312.873 466.657 312.217 466.897 311.713C467.138 311.203 467.486 310.828 467.943 310.588C468.4 310.348 468.957 310.228 469.613 310.228C469.982 310.228 470.319 310.26 470.624 310.324C470.935 310.389 471.207 310.462 471.441 310.544L471.063 311.695C470.864 311.631 470.639 311.572 470.387 311.52C470.141 311.461 469.889 311.432 469.631 311.432C469.074 311.432 468.661 311.613 468.392 311.977C468.128 312.334 467.996 312.896 467.996 313.664V314.367H470.396V315.51ZM476.451 315.51H474.052V324H472.593V315.51H470.888V314.807L472.593 314.323V313.682C472.593 312.873 472.713 312.217 472.953 311.713C473.193 311.203 473.542 310.828 473.999 310.588C474.456 310.348 475.013 310.228 475.669 310.228C476.038 310.228 476.375 310.26 476.68 310.324C476.99 310.389 477.263 310.462 477.497 310.544L477.119 311.695C476.92 311.631 476.694 311.572 476.442 311.52C476.196 311.461 475.944 311.432 475.687 311.432C475.13 311.432 474.717 311.613 474.447 311.977C474.184 312.334 474.052 312.896 474.052 313.664V314.367H476.451V315.51ZM479.677 314.367V324H478.218V314.367H479.677ZM478.965 310.764C479.205 310.764 479.41 310.843 479.58 311.001C479.756 311.153 479.844 311.394 479.844 311.722C479.844 312.044 479.756 312.284 479.58 312.442C479.41 312.601 479.205 312.68 478.965 312.68C478.713 312.68 478.502 312.601 478.332 312.442C478.168 312.284 478.086 312.044 478.086 311.722C478.086 311.394 478.168 311.153 478.332 311.001C478.502 310.843 478.713 310.764 478.965 310.764ZM486.611 324.176C485.744 324.176 484.979 323.997 484.317 323.64C483.655 323.282 483.14 322.737 482.771 322.005C482.401 321.272 482.217 320.35 482.217 319.236C482.217 318.07 482.41 317.118 482.797 316.38C483.189 315.636 483.729 315.085 484.414 314.728C485.1 314.37 485.879 314.191 486.752 314.191C487.232 314.191 487.695 314.241 488.141 314.341C488.592 314.435 488.961 314.555 489.248 314.701L488.809 315.923C488.516 315.806 488.176 315.7 487.789 315.606C487.408 315.513 487.051 315.466 486.717 315.466C486.049 315.466 485.492 315.609 485.047 315.896C484.607 316.184 484.276 316.605 484.054 317.162C483.837 317.719 483.729 318.404 483.729 319.219C483.729 319.998 483.834 320.663 484.045 321.214C484.262 321.765 484.581 322.187 485.003 322.479C485.431 322.767 485.964 322.91 486.603 322.91C487.112 322.91 487.572 322.857 487.982 322.752C488.393 322.641 488.765 322.512 489.099 322.365V323.666C488.776 323.83 488.416 323.956 488.018 324.044C487.625 324.132 487.156 324.176 486.611 324.176ZM499.338 314.367V324H498.143L497.932 322.646H497.853C497.653 322.98 497.396 323.262 497.079 323.49C496.763 323.719 496.405 323.889 496.007 324C495.614 324.117 495.195 324.176 494.75 324.176C493.988 324.176 493.35 324.053 492.834 323.807C492.318 323.561 491.929 323.18 491.665 322.664C491.407 322.148 491.278 321.486 491.278 320.678V314.367H492.755V320.572C492.755 321.375 492.937 321.976 493.3 322.374C493.663 322.767 494.217 322.963 494.961 322.963C495.676 322.963 496.244 322.828 496.666 322.559C497.094 322.289 497.401 321.894 497.589 321.372C497.776 320.845 497.87 320.2 497.87 319.438V314.367H499.338ZM503.891 324H502.423V310.324H503.891V324ZM510.087 322.98C510.327 322.98 510.573 322.96 510.825 322.919C511.077 322.878 511.282 322.828 511.44 322.77V323.903C511.271 323.979 511.033 324.044 510.729 324.097C510.43 324.149 510.137 324.176 509.85 324.176C509.34 324.176 508.877 324.088 508.461 323.912C508.045 323.73 507.711 323.426 507.459 322.998C507.213 322.57 507.09 321.979 507.09 321.223V315.51H505.719V314.798L507.099 314.227L507.679 312.135H508.558V314.367H511.379V315.51H508.558V321.179C508.558 321.782 508.695 322.233 508.971 322.532C509.252 322.831 509.624 322.98 510.087 322.98ZM511.871 314.367H513.436L515.562 319.957C515.686 320.285 515.8 320.602 515.905 320.906C516.011 321.205 516.104 321.492 516.187 321.768C516.269 322.043 516.333 322.31 516.38 322.567H516.441C516.523 322.274 516.641 321.891 516.793 321.416C516.945 320.936 517.109 320.446 517.285 319.948L519.298 314.367H520.871L516.679 325.415C516.456 326.007 516.195 326.522 515.896 326.962C515.604 327.401 515.246 327.738 514.824 327.973C514.402 328.213 513.893 328.333 513.295 328.333C513.02 328.333 512.776 328.315 512.565 328.28C512.354 328.251 512.173 328.216 512.021 328.175V327.006C512.149 327.035 512.305 327.062 512.486 327.085C512.674 327.108 512.867 327.12 513.066 327.12C513.43 327.12 513.743 327.05 514.007 326.909C514.276 326.774 514.508 326.575 514.701 326.312C514.895 326.048 515.062 325.734 515.202 325.371L515.729 324.018L511.871 314.367Z" fill="#ACACAC"/>
<g filter="url(#filter1_d_116_22)">
<rect x="316" y="13" width="258" height="344" rx="13" stroke="#F1F1F1" stroke-width="2" shape-rendering="crispEdges"/>
</g>
<path d="M785 119C785 107.201 780.909 95.7668 773.424 86.6459C765.938 77.5251 755.522 71.2818 743.95 68.98C732.377 66.6781 720.365 68.4599 709.959 74.022C699.553 79.5841 691.397 88.5822 686.882 99.4831C682.367 110.384 681.771 122.513 685.196 133.805C688.621 145.096 695.855 154.85 705.666 161.405C715.477 167.96 727.257 170.911 738.999 169.754C750.741 168.598 761.719 163.406 770.062 155.062" stroke="#E74C3C" stroke-width="35"/>
<path d="M785 119C785 125.697 783.681 132.329 781.118 138.517C778.555 144.704 774.798 150.327 770.062 155.062" stroke="#EAE2E2" stroke-width="35"/>
<path d="M698.012 212.543C698.012 213.691 697.925 214.831 697.752 215.961C697.588 217.091 697.296 218.158 696.877 219.16C696.458 220.154 695.87 221.038 695.113 221.812C694.357 222.578 693.395 223.18 692.229 223.617C691.062 224.055 689.649 224.273 687.99 224.273C687.598 224.273 687.138 224.255 686.609 224.219C686.081 224.191 685.643 224.146 685.297 224.082V220.691C685.661 220.783 686.049 220.855 686.459 220.91C686.869 220.956 687.284 220.979 687.703 220.979C689.371 220.979 690.656 220.714 691.559 220.186C692.47 219.657 693.108 218.923 693.473 217.984C693.846 217.046 694.061 215.961 694.115 214.73H693.951C693.687 215.168 693.372 215.564 693.008 215.92C692.652 216.266 692.197 216.544 691.641 216.754C691.085 216.954 690.378 217.055 689.521 217.055C688.382 217.055 687.389 216.809 686.541 216.316C685.702 215.815 685.051 215.095 684.586 214.156C684.13 213.208 683.902 212.064 683.902 210.725C683.902 209.275 684.176 208.036 684.723 207.006C685.279 205.967 686.067 205.169 687.088 204.613C688.109 204.057 689.312 203.779 690.697 203.779C691.718 203.779 692.671 203.957 693.555 204.312C694.439 204.659 695.214 205.192 695.879 205.912C696.553 206.632 697.077 207.544 697.451 208.646C697.825 209.749 698.012 211.048 698.012 212.543ZM690.779 207.17C689.959 207.17 689.289 207.452 688.77 208.018C688.25 208.583 687.99 209.467 687.99 210.67C687.99 211.636 688.214 212.402 688.66 212.967C689.107 213.532 689.786 213.814 690.697 213.814C691.326 213.814 691.873 213.678 692.338 213.404C692.803 213.122 693.163 212.771 693.418 212.352C693.682 211.923 693.814 211.486 693.814 211.039C693.814 210.574 693.751 210.114 693.623 209.658C693.495 209.202 693.304 208.788 693.049 208.414C692.794 208.04 692.475 207.74 692.092 207.512C691.718 207.284 691.281 207.17 690.779 207.17ZM710.59 224H706.365V212.434C706.365 212.115 706.37 211.723 706.379 211.258C706.388 210.784 706.402 210.301 706.42 209.809C706.438 209.307 706.456 208.856 706.475 208.455C706.374 208.574 706.169 208.779 705.859 209.07C705.559 209.353 705.276 209.608 705.012 209.836L702.715 211.682L700.678 209.139L707.117 204.012H710.59V224ZM726.477 204.012L719.025 224H715.238L722.689 204.012H726.477ZM736.443 224H734.229V209.836C734.229 209.298 734.229 208.838 734.229 208.455C734.238 208.063 734.247 207.708 734.256 207.389C734.274 207.061 734.297 206.728 734.324 206.391C734.042 206.682 733.777 206.933 733.531 207.143C733.285 207.343 732.98 207.594 732.615 207.895L730.332 209.727L729.143 208.182L734.557 204.012H736.443V224ZM757.225 213.979C757.225 215.601 757.102 217.05 756.855 218.326C756.609 219.602 756.222 220.682 755.693 221.566C755.165 222.451 754.481 223.125 753.643 223.59C752.804 224.046 751.797 224.273 750.621 224.273C749.135 224.273 747.905 223.868 746.93 223.057C745.964 222.245 745.239 221.074 744.756 219.543C744.282 218.003 744.045 216.148 744.045 213.979C744.045 211.846 744.259 210.014 744.688 208.482C745.125 206.942 745.827 205.762 746.793 204.941C747.759 204.112 749.035 203.697 750.621 203.697C752.125 203.697 753.365 204.107 754.34 204.928C755.315 205.739 756.04 206.915 756.514 208.455C756.988 209.986 757.225 211.827 757.225 213.979ZM746.328 213.979C746.328 215.838 746.469 217.387 746.752 218.627C747.035 219.867 747.49 220.796 748.119 221.416C748.757 222.027 749.591 222.332 750.621 222.332C751.651 222.332 752.48 222.027 753.109 221.416C753.747 220.805 754.208 219.88 754.49 218.641C754.782 217.401 754.928 215.847 754.928 213.979C754.928 212.146 754.786 210.615 754.504 209.385C754.221 208.145 753.766 207.215 753.137 206.596C752.508 205.967 751.669 205.652 750.621 205.652C749.573 205.652 748.734 205.967 748.105 206.596C747.477 207.215 747.021 208.145 746.738 209.385C746.465 210.615 746.328 212.146 746.328 213.979ZM773.248 213.979C773.248 215.601 773.125 217.05 772.879 218.326C772.633 219.602 772.245 220.682 771.717 221.566C771.188 222.451 770.505 223.125 769.666 223.59C768.827 224.046 767.82 224.273 766.645 224.273C765.159 224.273 763.928 223.868 762.953 223.057C761.987 222.245 761.262 221.074 760.779 219.543C760.305 218.003 760.068 216.148 760.068 213.979C760.068 211.846 760.283 210.014 760.711 208.482C761.148 206.942 761.85 205.762 762.816 204.941C763.783 204.112 765.059 203.697 766.645 203.697C768.148 203.697 769.388 204.107 770.363 204.928C771.339 205.739 772.063 206.915 772.537 208.455C773.011 209.986 773.248 211.827 773.248 213.979ZM762.352 213.979C762.352 215.838 762.493 217.387 762.775 218.627C763.058 219.867 763.514 220.796 764.143 221.416C764.781 222.027 765.615 222.332 766.645 222.332C767.674 222.332 768.504 222.027 769.133 221.416C769.771 220.805 770.231 219.88 770.514 218.641C770.805 217.401 770.951 215.847 770.951 213.979C770.951 212.146 770.81 210.615 770.527 209.385C770.245 208.145 769.789 207.215 769.16 206.596C768.531 205.967 767.693 205.652 766.645 205.652C765.596 205.652 764.758 205.967 764.129 206.596C763.5 207.215 763.044 208.145 762.762 209.385C762.488 210.615 762.352 212.146 762.352 213.979Z" fill="black"/>
<path d="M711.293 280H705.861V268.908H695.684V280H690.234V254.301H695.684V264.373H705.861V254.301H711.293V280ZM725.426 259.943C728.062 259.943 730.084 260.518 731.49 261.666C732.896 262.814 733.6 264.561 733.6 266.904V280H729.855L728.818 277.328H728.678C728.115 278.031 727.541 278.605 726.955 279.051C726.369 279.496 725.695 279.824 724.934 280.035C724.172 280.246 723.246 280.352 722.156 280.352C720.996 280.352 719.953 280.129 719.027 279.684C718.113 279.238 717.393 278.559 716.865 277.645C716.338 276.719 716.074 275.547 716.074 274.129C716.074 272.043 716.807 270.508 718.271 269.523C719.736 268.527 721.934 267.977 724.863 267.871L728.273 267.766V266.904C728.273 265.873 728.004 265.117 727.465 264.637C726.926 264.156 726.176 263.916 725.215 263.916C724.266 263.916 723.334 264.051 722.42 264.32C721.506 264.59 720.592 264.93 719.678 265.34L717.902 261.719C718.945 261.168 720.111 260.734 721.4 260.418C722.701 260.102 724.043 259.943 725.426 259.943ZM728.273 270.895L726.199 270.965C724.465 271.012 723.258 271.322 722.578 271.896C721.91 272.471 721.576 273.227 721.576 274.164C721.576 274.984 721.816 275.57 722.297 275.922C722.777 276.262 723.404 276.432 724.178 276.432C725.326 276.432 726.293 276.092 727.078 275.412C727.875 274.732 728.273 273.766 728.273 272.512V270.895ZM750.105 259.979C750.375 259.979 750.686 259.996 751.037 260.031C751.4 260.055 751.693 260.09 751.916 260.137L751.512 265.164C751.336 265.105 751.084 265.064 750.756 265.041C750.439 265.006 750.164 264.988 749.93 264.988C749.238 264.988 748.564 265.076 747.908 265.252C747.264 265.428 746.684 265.715 746.168 266.113C745.652 266.5 745.242 267.016 744.938 267.66C744.645 268.293 744.498 269.072 744.498 269.998V280H739.137V260.348H743.197L743.988 263.652H744.252C744.639 262.984 745.119 262.375 745.693 261.824C746.279 261.262 746.941 260.816 747.68 260.488C748.43 260.148 749.238 259.979 750.105 259.979ZM761.707 280.352C759.516 280.352 757.729 279.496 756.346 277.785C754.975 276.062 754.289 273.537 754.289 270.209C754.289 266.846 754.986 264.303 756.381 262.58C757.775 260.846 759.598 259.979 761.848 259.979C762.785 259.979 763.611 260.107 764.326 260.365C765.041 260.623 765.656 260.969 766.172 261.402C766.699 261.836 767.145 262.322 767.508 262.861H767.684C767.613 262.486 767.525 261.936 767.42 261.209C767.326 260.471 767.279 259.715 767.279 258.941V252.648H772.658V280H768.545L767.508 277.451H767.279C766.939 277.99 766.512 278.482 765.996 278.928C765.492 279.361 764.889 279.707 764.186 279.965C763.482 280.223 762.656 280.352 761.707 280.352ZM763.588 276.08C765.053 276.08 766.084 275.646 766.682 274.779C767.291 273.9 767.613 272.582 767.648 270.824V270.244C767.648 268.334 767.355 266.875 766.77 265.867C766.184 264.848 765.094 264.338 763.5 264.338C762.316 264.338 761.391 264.848 760.723 265.867C760.055 266.887 759.721 268.357 759.721 270.279C759.721 272.201 760.055 273.648 760.723 274.621C761.402 275.594 762.357 276.08 763.588 276.08Z" fill="black"/>
<path d="M670.021 324H668.255L663.623 317.751L662.252 318.981V324H660.758V311.15H662.252V317.558C662.586 317.177 662.929 316.799 663.28 316.424C663.632 316.043 663.98 315.659 664.326 315.272L668.079 311.15H669.828L664.713 316.723L670.021 324ZM675.269 314.191C676.089 314.191 676.792 314.373 677.378 314.736C677.964 315.1 678.412 315.609 678.723 316.266C679.033 316.916 679.188 317.678 679.188 318.551V319.456H672.535C672.553 320.587 672.834 321.448 673.379 322.04C673.924 322.632 674.691 322.928 675.682 322.928C676.291 322.928 676.83 322.872 677.299 322.761C677.768 322.649 678.254 322.485 678.758 322.269V323.552C678.271 323.769 677.788 323.927 677.308 324.026C676.833 324.126 676.271 324.176 675.62 324.176C674.694 324.176 673.886 323.988 673.194 323.613C672.509 323.232 671.976 322.676 671.595 321.943C671.214 321.211 671.023 320.314 671.023 319.254C671.023 318.217 671.196 317.32 671.542 316.564C671.894 315.803 672.386 315.217 673.019 314.807C673.657 314.396 674.407 314.191 675.269 314.191ZM675.251 315.387C674.472 315.387 673.851 315.642 673.388 316.151C672.925 316.661 672.649 317.373 672.562 318.287H677.659C677.653 317.713 677.562 317.209 677.387 316.775C677.217 316.336 676.956 315.996 676.604 315.756C676.253 315.51 675.802 315.387 675.251 315.387ZM680.146 314.367H681.711L683.838 319.957C683.961 320.285 684.075 320.602 684.181 320.906C684.286 321.205 684.38 321.492 684.462 321.768C684.544 322.043 684.608 322.31 684.655 322.567H684.717C684.799 322.274 684.916 321.891 685.068 321.416C685.221 320.936 685.385 320.446 685.561 319.948L687.573 314.367H689.146L684.954 325.415C684.731 326.007 684.471 326.522 684.172 326.962C683.879 327.401 683.521 327.738 683.1 327.973C682.678 328.213 682.168 328.333 681.57 328.333C681.295 328.333 681.052 328.315 680.841 328.28C680.63 328.251 680.448 328.216 680.296 328.175V327.006C680.425 327.035 680.58 327.062 680.762 327.085C680.949 327.108 681.143 327.12 681.342 327.12C681.705 327.12 682.019 327.05 682.282 326.909C682.552 326.774 682.783 326.575 682.977 326.312C683.17 326.048 683.337 325.734 683.478 325.371L684.005 324.018L680.146 314.367ZM698.524 323.982L696.811 318.375C696.734 318.135 696.661 317.9 696.591 317.672C696.526 317.438 696.465 317.215 696.406 317.004C696.354 316.787 696.304 316.588 696.257 316.406C696.216 316.219 696.181 316.058 696.151 315.923H696.09C696.066 316.058 696.034 316.219 695.993 316.406C695.952 316.588 695.902 316.787 695.844 317.004C695.791 317.221 695.732 317.449 695.668 317.689C695.604 317.924 695.53 318.161 695.448 318.401L693.655 323.982H692.012L689.357 314.35H690.869L692.258 319.667C692.352 320.019 692.439 320.367 692.521 320.713C692.609 321.053 692.683 321.375 692.741 321.68C692.806 321.979 692.853 322.239 692.882 322.462H692.952C692.987 322.315 693.025 322.14 693.066 321.935C693.113 321.729 693.163 321.513 693.216 321.284C693.274 321.05 693.336 320.818 693.4 320.59C693.465 320.355 693.529 320.136 693.594 319.931L695.369 314.35H696.942L698.656 319.922C698.744 320.203 698.829 320.496 698.911 320.801C698.999 321.105 699.078 321.401 699.148 321.688C699.219 321.97 699.269 322.222 699.298 322.444H699.368C699.392 322.245 699.436 321.999 699.5 321.706C699.564 321.413 699.638 321.091 699.72 320.739C699.808 320.388 699.898 320.03 699.992 319.667L701.398 314.35H702.884L700.221 323.982H698.524ZM712.947 319.166C712.947 319.957 712.845 320.663 712.64 321.284C712.435 321.905 712.139 322.43 711.752 322.857C711.365 323.285 710.896 323.613 710.346 323.842C709.801 324.064 709.183 324.176 708.491 324.176C707.847 324.176 707.255 324.064 706.716 323.842C706.183 323.613 705.72 323.285 705.327 322.857C704.94 322.43 704.639 321.905 704.422 321.284C704.211 320.663 704.105 319.957 704.105 319.166C704.105 318.111 704.284 317.215 704.642 316.477C704.999 315.732 705.509 315.167 706.171 314.78C706.839 314.388 707.633 314.191 708.553 314.191C709.432 314.191 710.199 314.388 710.855 314.78C711.518 315.173 712.03 315.741 712.394 316.485C712.763 317.224 712.947 318.117 712.947 319.166ZM705.617 319.166C705.617 319.939 705.72 320.61 705.925 321.179C706.13 321.747 706.446 322.187 706.874 322.497C707.302 322.808 707.853 322.963 708.526 322.963C709.194 322.963 709.742 322.808 710.17 322.497C710.604 322.187 710.923 321.747 711.128 321.179C711.333 320.61 711.436 319.939 711.436 319.166C711.436 318.398 711.333 317.736 711.128 317.18C710.923 316.617 710.606 316.184 710.179 315.879C709.751 315.574 709.197 315.422 708.518 315.422C707.516 315.422 706.78 315.753 706.312 316.415C705.849 317.077 705.617 317.994 705.617 319.166ZM719.847 314.191C720.04 314.191 720.242 314.203 720.453 314.227C720.664 314.244 720.852 314.271 721.016 314.306L720.831 315.659C720.673 315.618 720.497 315.586 720.304 315.562C720.11 315.539 719.929 315.527 719.759 315.527C719.372 315.527 719.006 315.606 718.66 315.765C718.32 315.917 718.021 316.14 717.764 316.433C717.506 316.72 717.304 317.068 717.157 317.479C717.011 317.883 716.938 318.334 716.938 318.832V324H715.47V314.367H716.683L716.841 316.143H716.902C717.102 315.785 717.342 315.46 717.623 315.167C717.904 314.868 718.229 314.631 718.599 314.455C718.974 314.279 719.39 314.191 719.847 314.191ZM726.263 324.176C725.044 324.176 724.077 323.76 723.362 322.928C722.653 322.096 722.299 320.859 722.299 319.219C722.299 317.561 722.662 316.31 723.389 315.466C724.115 314.616 725.082 314.191 726.289 314.191C726.799 314.191 727.244 314.259 727.625 314.394C728.006 314.528 728.334 314.71 728.609 314.938C728.885 315.161 729.116 315.416 729.304 315.703H729.409C729.386 315.521 729.362 315.272 729.339 314.956C729.315 314.64 729.304 314.382 729.304 314.183V310.324H730.763V324H729.585L729.365 322.629H729.304C729.122 322.916 728.891 323.177 728.609 323.411C728.334 323.646 728.003 323.833 727.616 323.974C727.235 324.108 726.784 324.176 726.263 324.176ZM726.491 322.963C727.522 322.963 728.252 322.67 728.68 322.084C729.107 321.498 729.321 320.628 729.321 319.474V319.21C729.321 317.985 729.116 317.045 728.706 316.389C728.302 315.732 727.563 315.404 726.491 315.404C725.595 315.404 724.924 315.75 724.479 316.441C724.033 317.127 723.811 318.064 723.811 319.254C723.811 320.438 724.03 321.352 724.47 321.996C724.915 322.641 725.589 322.963 726.491 322.963ZM741.96 324.176C740.741 324.176 739.774 323.76 739.06 322.928C738.351 322.096 737.996 320.859 737.996 319.219C737.996 317.561 738.359 316.31 739.086 315.466C739.812 314.616 740.779 314.191 741.986 314.191C742.496 314.191 742.941 314.259 743.322 314.394C743.703 314.528 744.031 314.71 744.307 314.938C744.582 315.161 744.813 315.416 745.001 315.703H745.106C745.083 315.521 745.06 315.272 745.036 314.956C745.013 314.64 745.001 314.382 745.001 314.183V310.324H746.46V324H745.282L745.062 322.629H745.001C744.819 322.916 744.588 323.177 744.307 323.411C744.031 323.646 743.7 323.833 743.313 323.974C742.933 324.108 742.481 324.176 741.96 324.176ZM742.188 322.963C743.22 322.963 743.949 322.67 744.377 322.084C744.805 321.498 745.019 320.628 745.019 319.474V319.21C745.019 317.985 744.813 317.045 744.403 316.389C743.999 315.732 743.261 315.404 742.188 315.404C741.292 315.404 740.621 315.75 740.176 316.441C739.73 317.127 739.508 318.064 739.508 319.254C739.508 320.438 739.728 321.352 740.167 321.996C740.612 322.641 741.286 322.963 742.188 322.963ZM751.013 314.367V324H749.554V314.367H751.013ZM750.301 310.764C750.541 310.764 750.746 310.843 750.916 311.001C751.092 311.153 751.18 311.394 751.18 311.722C751.18 312.044 751.092 312.284 750.916 312.442C750.746 312.601 750.541 312.68 750.301 312.68C750.049 312.68 749.838 312.601 749.668 312.442C749.504 312.284 749.422 312.044 749.422 311.722C749.422 311.394 749.504 311.153 749.668 311.001C749.838 310.843 750.049 310.764 750.301 310.764ZM758.396 315.51H755.996V324H754.537V315.51H752.832V314.807L754.537 314.323V313.682C754.537 312.873 754.657 312.217 754.897 311.713C755.138 311.203 755.486 310.828 755.943 310.588C756.4 310.348 756.957 310.228 757.613 310.228C757.982 310.228 758.319 310.26 758.624 310.324C758.935 310.389 759.207 310.462 759.441 310.544L759.063 311.695C758.864 311.631 758.639 311.572 758.387 311.52C758.141 311.461 757.889 311.432 757.631 311.432C757.074 311.432 756.661 311.613 756.392 311.977C756.128 312.334 755.996 312.896 755.996 313.664V314.367H758.396V315.51ZM764.451 315.51H762.052V324H760.593V315.51H758.888V314.807L760.593 314.323V313.682C760.593 312.873 760.713 312.217 760.953 311.713C761.193 311.203 761.542 310.828 761.999 310.588C762.456 310.348 763.013 310.228 763.669 310.228C764.038 310.228 764.375 310.26 764.68 310.324C764.99 310.389 765.263 310.462 765.497 310.544L765.119 311.695C764.92 311.631 764.694 311.572 764.442 311.52C764.196 311.461 763.944 311.432 763.687 311.432C763.13 311.432 762.717 311.613 762.447 311.977C762.184 312.334 762.052 312.896 762.052 313.664V314.367H764.451V315.51ZM767.677 314.367V324H766.218V314.367H767.677ZM766.965 310.764C767.205 310.764 767.41 310.843 767.58 311.001C767.756 311.153 767.844 311.394 767.844 311.722C767.844 312.044 767.756 312.284 767.58 312.442C767.41 312.601 767.205 312.68 766.965 312.68C766.713 312.68 766.502 312.601 766.332 312.442C766.168 312.284 766.086 312.044 766.086 311.722C766.086 311.394 766.168 311.153 766.332 311.001C766.502 310.843 766.713 310.764 766.965 310.764ZM774.611 324.176C773.744 324.176 772.979 323.997 772.317 323.64C771.655 323.282 771.14 322.737 770.771 322.005C770.401 321.272 770.217 320.35 770.217 319.236C770.217 318.07 770.41 317.118 770.797 316.38C771.189 315.636 771.729 315.085 772.414 314.728C773.1 314.37 773.879 314.191 774.752 314.191C775.232 314.191 775.695 314.241 776.141 314.341C776.592 314.435 776.961 314.555 777.248 314.701L776.809 315.923C776.516 315.806 776.176 315.7 775.789 315.606C775.408 315.513 775.051 315.466 774.717 315.466C774.049 315.466 773.492 315.609 773.047 315.896C772.607 316.184 772.276 316.605 772.054 317.162C771.837 317.719 771.729 318.404 771.729 319.219C771.729 319.998 771.834 320.663 772.045 321.214C772.262 321.765 772.581 322.187 773.003 322.479C773.431 322.767 773.964 322.91 774.603 322.91C775.112 322.91 775.572 322.857 775.982 322.752C776.393 322.641 776.765 322.512 777.099 322.365V323.666C776.776 323.83 776.416 323.956 776.018 324.044C775.625 324.132 775.156 324.176 774.611 324.176ZM787.338 314.367V324H786.143L785.932 322.646H785.853C785.653 322.98 785.396 323.262 785.079 323.49C784.763 323.719 784.405 323.889 784.007 324C783.614 324.117 783.195 324.176 782.75 324.176C781.988 324.176 781.35 324.053 780.834 323.807C780.318 323.561 779.929 323.18 779.665 322.664C779.407 322.148 779.278 321.486 779.278 320.678V314.367H780.755V320.572C780.755 321.375 780.937 321.976 781.3 322.374C781.663 322.767 782.217 322.963 782.961 322.963C783.676 322.963 784.244 322.828 784.666 322.559C785.094 322.289 785.401 321.894 785.589 321.372C785.776 320.845 785.87 320.2 785.87 319.438V314.367H787.338ZM791.891 324H790.423V310.324H791.891V324ZM798.087 322.98C798.327 322.98 798.573 322.96 798.825 322.919C799.077 322.878 799.282 322.828 799.44 322.77V323.903C799.271 323.979 799.033 324.044 798.729 324.097C798.43 324.149 798.137 324.176 797.85 324.176C797.34 324.176 796.877 324.088 796.461 323.912C796.045 323.73 795.711 323.426 795.459 322.998C795.213 322.57 795.09 321.979 795.09 321.223V315.51H793.719V314.798L795.099 314.227L795.679 312.135H796.558V314.367H799.379V315.51H796.558V321.179C796.558 321.782 796.695 322.233 796.971 322.532C797.252 322.831 797.624 322.98 798.087 322.98ZM799.871 314.367H801.436L803.562 319.957C803.686 320.285 803.8 320.602 803.905 320.906C804.011 321.205 804.104 321.492 804.187 321.768C804.269 322.043 804.333 322.31 804.38 322.567H804.441C804.523 322.274 804.641 321.891 804.793 321.416C804.945 320.936 805.109 320.446 805.285 319.948L807.298 314.367H808.871L804.679 325.415C804.456 326.007 804.195 326.522 803.896 326.962C803.604 327.401 803.246 327.738 802.824 327.973C802.402 328.213 801.893 328.333 801.295 328.333C801.02 328.333 800.776 328.315 800.565 328.28C800.354 328.251 800.173 328.216 800.021 328.175V327.006C800.149 327.035 800.305 327.062 800.486 327.085C800.674 327.108 800.867 327.12 801.066 327.12C801.43 327.12 801.743 327.05 802.007 326.909C802.276 326.774 802.508 326.575 802.701 326.312C802.895 326.048 803.062 325.734 803.202 325.371L803.729 324.018L799.871 314.367Z" fill="#ACACAC"/>
<g filter="url(#filter2_d_116_22)">
<rect x="604" y="13" width="258" height="344" rx="13" stroke="#F1F1F1" stroke-width="2" shape-rendering="crispEdges"/>
</g>
<defs>
<filter id="filter0_d_116_22" x="0" y="0" width="312" height="398" filterUnits="userSpaceOnUse" color-interpolation-filters="sRGB">
<feFlood flood-opacity="0" result="BackgroundImageFix"/>
<feColorMatrix in="SourceAlpha" type="matrix" values="0 0 0 0 0 0 0 0 0 0 0 0 0 0 0 0 0 0 127 0" result="hardAlpha"/>
<feMorphology radius="2" operator="dilate" in="SourceAlpha" result="effect1_dropShadow_116_22"/>
<feOffset dx="-1" dy="14"/>
<feGaussianBlur stdDeviation="12"/>
<feComposite in2="hardAlpha" operator="out"/>
<feColorMatrix type="matrix" values="0 0 0 0 0.591667 0 0 0 0 0.591667 0 0 0 0 0.591667 0 0 0 0.25 0"/>
<feBlend mode="normal" in2="BackgroundImageFix" result="effect1_dropShadow_116_22"/>
<feBlend mode="normal" in="SourceGraphic" in2="effect1_dropShadow_116_22" result="shape"/>
</filter>
<filter id="filter1_d_116_22" x="288" y="0" width="312" height="398" filterUnits="userSpaceOnUse" color-interpolation-filters="sRGB">
<feFlood flood-opacity="0" result="BackgroundImageFix"/>
<feColorMatrix in="SourceAlpha" type="matrix" values="0 0 0 0 0 0 0 0 0 0 0 0 0 0 0 0 0 0 127 0" result="hardAlpha"/>
<feMorphology radius="2" operator="dilate" in="SourceAlpha" result="effect1_dropShadow_116_22"/>
<feOffset dx="-1" dy="14"/>
<feGaussianBlur stdDeviation="12"/>
<feComposite in2="hardAlpha" operator="out"/>
<feColorMatrix type="matrix" values="0 0 0 0 0.591667 0 0 0 0 0.591667 0 0 0 0 0.591667 0 0 0 0.25 0"/>
<feBlend mode="normal" in2="BackgroundImageFix" result="effect1_dropShadow_116_22"/>
<feBlend mode="normal" in="SourceGraphic" in2="effect1_dropShadow_116_22" result="shape"/>
</filter>
<filter id="filter2_d_116_22" x="576" y="0" width="312" height="398" filterUnits="userSpaceOnUse" color-interpolation-filters="sRGB">
<feFlood flood-opacity="0" result="BackgroundImageFix"/>
<feColorMatrix in="SourceAlpha" type="matrix" values="0 0 0 0 0 0 0 0 0 0 0 0 0 0 0 0 0 0 127 0" result="hardAlpha"/>
<feMorphology radius="2" operator="dilate" in="SourceAlpha" result="effect1_dropShadow_116_22"/>
<feOffset dx="-1" dy="14"/>
<feGaussianBlur stdDeviation="12"/>
<feComposite in2="hardAlpha" operator="out"/>
<feColorMatrix type="matrix" values="0 0 0 0 0.591667 0 0 0 0 0.591667 0 0 0 0 0.591667 0 0 0 0.25 0"/>
<feBlend mode="normal" in2="BackgroundImageFix" result="effect1_dropShadow_116_22"/>
<feBlend mode="normal" in="SourceGraphic" in2="effect1_dropShadow_116_22" result="shape"/>
</filter>
</defs>
</svg>
