<svg xmlns="http://www.w3.org/2000/svg" version="1.1" xmlns:xlink="http://www.w3.org/1999/xlink" xmlns:svgjs="http://svgjs.com/svgjs"  x="0" y="0" viewBox="0 0 512 512" style="enable-background:new 0 0 512 512" xml:space="preserve" class=""><g><g xmlns="http://www.w3.org/2000/svg"><path d="m49.219 376.537 3.075-10.332 60.702 27.639c18.682 8.506 40.755.965 50.328-17.193l58.959-111.84c11.877-22.529 35.251-36.63 60.719-36.63 26.563 0 50.522 15.965 60.75 40.479l74.31 178.108c-3.372-.51-6.803-.771-10.267-.771h-56.229l-71.986-144.725 6.075 15.691-52.939 125.387c-15.264 36.152-50.691 59.65-89.933 59.65-65.301 0-112.19-62.875-93.564-125.463z" fill="#10a37f" data-original="#6d92ac" class=""></path><path d="m102.309 202.165c10.92-35.865 49.263-55.669 84.83-43.813 36.861 12.287 55.437 53.374 40.314 89.164l-15.944 37.733-48.185 91.403c-9.573 18.158-31.646 25.699-50.328 17.193l-60.533-27.96z" fill="#ffffff" data-original="#ffffff" class=""></path><path d="m211.51 285.248 15.943-37.733" fill="#433f59" data-original="#433f59"></path><path d="m167.815 199.511c13.546 7.821 30.867 3.18 38.688-10.366l37.563-65.06c7.821-13.546 3.18-30.867-10.366-38.688-13.546-7.821-30.867-3.18-38.688 10.366l-37.563 65.06c-7.821 13.546-3.18 30.867 10.366 38.688z" fill="#ffd0c7" data-original="#ffd0c7" class=""></path><path d="m211.733 176.318c26.192 15.122 59.683 6.148 74.804-20.044l13.976-24.207c15.122-26.192 6.148-59.682-20.044-74.804-26.192-15.122-59.682-6.148-74.804 20.044l-13.976 24.207c-15.121 26.191-6.147 59.682 20.044 74.804z" fill="#ffd0c7" data-original="#ffd0c7" class=""></path><path d="m243.069 10c23.599 0 43.319 16.559 48.205 38.689 2.375-.564 4.839-.871 7.373-.871 18.722 0 33.898 16.248 33.898 36.291s-15.177 36.291-33.898 36.291c-12.844 0-24.018-7.648-29.769-18.922-7.511 4.614-16.347 7.279-25.808 7.279-27.271 0-49.378-22.107-49.378-49.379-.002-27.271 22.106-49.378 49.377-49.378z" fill="#10a37f" data-original="#6d92ac" class=""></path><path d="m128.234 241.356 13.103 61.202c4.338 20.26 18.456 37.043 37.675 44.783 13.901 5.599 29.341 6.069 43.558 1.326l135.525-45.216-19.445-45.558-131.7 34.1-8.508-42.063z" fill="#ffffff" data-original="#ffffff" class=""></path><path d="m358.094 303.452 15.469-6.635c12.571-5.392 18.391-19.954 12.999-32.524-5.392-12.571-19.954-18.391-32.524-12.999l-15.469 6.635z" fill="#ffd0c7" data-original="#ffd0c7" class=""></path><path d="m350.099 445.997-7.276 26.579c-4.055 14.813 7.094 29.424 22.452 29.424h84.438c13.967 0 22.104-15.774 14.008-27.156-12.875-18.098-33.713-28.847-55.924-28.847z" fill="#ffd0c7" data-original="#ffd0c7" class=""></path><g><path d="m471.868 469.048c-11.289-15.869-28.008-26.826-46.641-31.078l-53.944-129.295 6.222-2.668c8.535-3.66 15.133-10.426 18.579-19.049 3.447-8.624 3.329-18.073-.332-26.607-7.557-17.619-28.04-25.805-45.657-18.248l-8.584 3.682c-14.326-17.372-35.818-27.604-58.509-27.604-14.665 0-28.675 4.04-40.721 11.328 1.254-12.151-.418-24.458-4.863-35.853.53.013 1.06.026 1.59.026 5.625 0 11.288-.739 16.866-2.234 16.708-4.477 30.674-15.192 39.323-30.173l13.976-24.207c1.75-3.03 3.234-6.199 4.47-9.453 16.843-6.476 28.901-23.533 28.901-43.506 0-25.525-19.693-46.291-43.898-46.291-.087 0-.174 0-.261.001-8.769-22.365-30.757-37.819-55.316-37.819-32.741 0-59.378 26.637-59.378 59.378 0 9.232 2.119 17.979 5.895 25.78l-35.004 60.632c-29.167 4.399-53.16 24.958-61.838 53.462l-6.437 21.142c-1.608 5.284 1.37 10.871 6.654 12.479.971.296 1.951.437 2.916.437 4.286 0 8.25-2.777 9.563-7.09l6.437-21.142c5.011-16.459 16.932-29.335 32.186-35.734-.764 5.126-.483 10.401.899 15.558 2.649 9.888 8.991 18.151 17.855 23.269 5.905 3.409 12.458 5.151 19.099 5.151 3.328-.001 6.679-.438 9.98-1.322 9.887-2.649 18.151-8.991 23.269-17.855l.23-.398c8.527 15.163 9.718 33.617 2.848 49.875l-7.355 17.406-2.646-13.08c-1.095-5.414-6.378-8.914-11.784-7.819-5.414 1.096-8.914 6.371-7.819 11.784l8.508 42.062c.544 2.691 2.171 5.04 4.499 6.496 2.327 1.454 5.15 1.891 7.809 1.202l123.373-31.943 11.81 27.668-125.233 41.782c-11.952 3.99-24.97 3.592-36.657-1.116-16.16-6.508-27.985-20.564-31.633-37.601l-13.103-61.201c-1.156-5.399-6.474-8.844-11.872-7.685-5.401 1.156-8.841 6.472-7.685 11.872l13.103 61.201c4.249 19.844 16.527 36.762 33.653 46.977l-10.733 20.36c-7.093 13.454-23.492 19.058-37.338 12.756l-52.665-23.979 14.776-48.529c1.608-5.284-1.37-10.871-6.654-12.479-5.282-1.609-10.871 1.37-12.479 6.653l-20.483 67.275c-9.787 32.889-3.635 67.526 16.878 95.033 20.512 27.508 51.957 43.283 86.27 43.283 43.362 0 82.278-25.812 99.144-65.76l45.265-107.209 52.776 106.101-6.79 24.804c-2.763 10.094-.707 20.653 5.641 28.974 6.348 8.319 15.991 13.09 26.456 13.09h84.438c10.22 0 19.479-5.643 24.165-14.726 4.684-9.083 3.915-19.898-2.01-28.226zm-94.497-200.814c1.555 3.625 1.605 7.639.142 11.301-1.464 3.663-4.267 6.536-7.892 8.091l-6.263 2.686-11.594-27.164 6.214-2.665c7.483-3.21 16.183.266 19.393 7.751zm-94.369-30.053c13.814 0 27.015 5.163 37.139 14.175l-92.631 23.983 3.619-6.866c10.176-19.301 30.053-31.292 51.873-31.292zm-5.125-86.907c-5.978 10.354-15.63 17.761-27.179 20.854s-23.611 1.505-33.965-4.472c-10.354-5.978-17.76-15.63-20.855-27.179-3.09-11.533-1.51-23.576 4.448-33.92l2.216-3.839c10.62 9.937 24.87 16.038 40.526 16.038 7.71 0 15.299-1.493 22.364-4.366 6.455 7.877 15.256 13.223 24.978 15.174zm-34.808-131.274c18.328 0 34.494 12.972 38.44 30.845.578 2.617 2.182 4.893 4.453 6.316 2.27 1.423 5.016 1.876 7.625 1.256 1.675-.397 3.377-.6 5.06-.6 13.178 0 23.898 11.794 23.898 26.291s-10.721 26.291-23.898 26.291c-8.63 0-16.624-5.16-20.861-13.466-1.268-2.485-3.516-4.328-6.201-5.083-.889-.25-1.8-.373-2.706-.373-1.831 0-3.646.503-5.235 1.479-6.176 3.794-13.291 5.8-20.574 5.8-21.713 0-39.378-17.665-39.378-39.379-.002-21.712 17.663-39.377 39.377-39.377zm-56.35 172.681c-4.728 1.27-9.665.616-13.903-1.83-4.238-2.447-7.27-6.397-8.536-11.125s-.617-9.665 1.83-13.903l10.853-18.798c3.924 13.48 11.944 25.087 23.003 33.446l-2.122 3.675c-2.448 4.237-6.398 7.268-11.125 8.535zm165.877 123.147 50.137 120.169h-44.97l-52.002-104.543zm-129.093 122.633c-13.732 32.523-45.416 53.539-80.72 53.539-27.937 0-53.537-12.844-70.238-35.238-16.572-22.223-21.625-50.16-13.934-76.692l50.242 22.875c6.523 2.971 13.379 4.382 20.141 4.382 17.57 0 34.49-9.535 43.177-26.013l11.547-21.904c6.176 1.649 12.523 2.497 18.88 2.497 7.809 0 15.626-1.248 23.137-3.754l36.869-12.301zm232.6 49.644c-.604 1.171-2.436 3.895-6.391 3.895h-84.438c-4.175 0-8.023-1.904-10.556-5.224-2.533-3.319-3.354-7.532-2.251-11.56l5.262-19.22h50.066c18.938 0 36.797 9.213 47.775 24.645 2.294 3.223 1.137 6.294.533 7.464z" fill="#000000" data-original="#000000" class=""></path><circle cx="82.827" cy="266.157" r="10" fill="#000000" data-original="#000000" class=""></circle></g></g></g></svg>