<svg xmlns="http://www.w3.org/2000/svg" version="1.1" xmlns:xlink="http://www.w3.org/1999/xlink" xmlns:svgjs="http://svgjs.com/svgjs"  x="0" y="0" viewBox="0 0 60 60" style="enable-background:new 0 0 512 512" xml:space="preserve" class=""><g><g xmlns="http://www.w3.org/2000/svg"><path d="m55.536 18.962-12.193-2.486c-1.025-.209-1.904-.851-2.412-1.76l-6.054-10.857c-.998-1.79-2.821-2.859-4.877-2.859s-3.879 1.069-4.877 2.859l-6.054 10.856c-.508.91-1.387 1.551-2.412 1.76l-12.193 2.487c-1.991.406-3.557 1.799-4.187 3.726-.627 1.919-.188 3.958 1.171 5.453l8.495 9.34c.689.757 1.018 1.774.902 2.789l-1.433 12.534c-.231 2.019.617 3.937 2.268 5.129.98.708 2.114 1.069 3.262 1.069.797 0 1.601-.174 2.363-.527l11.186-5.174c.959-.444 2.061-.444 3.02 0l11.186 5.174c1.862.862 3.964.658 5.625-.542 1.65-1.193 2.499-3.11 2.268-5.129l-1.434-12.533c-.115-1.015.213-2.032.902-2.79l8.495-9.34c1.359-1.496 1.798-3.534 1.171-5.453-.631-1.926-2.197-3.319-4.188-3.726zm1.535 7.834-8.495 9.34c-1.076 1.185-1.59 2.774-1.408 4.362l1.434 12.534c.147 1.291-.396 2.517-1.453 3.281-1.064.771-2.416.902-3.613.348l-11.186-5.175c-1.494-.69-3.205-.69-4.699 0l-11.186 5.174c-1.196.554-2.548.423-3.613-.348-1.058-.764-1.601-1.99-1.453-3.281l1.434-12.534c.182-1.588-.332-3.177-1.408-4.362l-8.495-9.34c-.87-.957-1.15-2.26-.75-3.486.403-1.234 1.407-2.126 2.686-2.387l12.193-2.486c1.597-.326 2.967-1.327 3.758-2.747l6.054-10.856c.639-1.148 1.809-1.833 3.129-1.833s2.49.685 3.131 1.833l6.054 10.856c.791 1.42 2.161 2.421 3.758 2.747l12.193 2.486c1.278.261 2.282 1.153 2.686 2.387.4 1.227.119 2.53-.751 3.487z" fill="#000000" data-original="#000000" class=""></path><path d="m27.459 25.159c-2.888 1.857-5.785.084-5.921-.001-.466-.297-1.082-.162-1.379.302-.299.464-.164 1.083.3 1.382.109.07 1.853 1.165 4.174 1.165 1.197 0 2.549-.292 3.908-1.165.464-.299.599-.917.3-1.382-.297-.465-.916-.599-1.382-.301z" fill="#000000" data-original="#000000" class=""></path><path d="m38.459 25.159c-.029.018-2.996 1.881-5.918 0-.466-.298-1.084-.164-1.382.301-.299.464-.164 1.083.3 1.382 1.359.874 2.71 1.165 3.908 1.165 2.32 0 4.064-1.095 4.174-1.165.464-.299.599-.917.3-1.382-.297-.465-.916-.599-1.382-.301z" fill="#000000" data-original="#000000" class=""></path><path d="m21 23c.104 0 .211-.017.316-.052l3-1c.523-.175.807-.741.632-1.265-.175-.523-.736-.808-1.265-.632l-3 1c-.523.175-.807.741-.632 1.265.14.419.53.684.949.684z" fill="#000000" data-original="#000000" class=""></path><path d="m35.684 21.949 3 1c.105.035.212.051.316.051.419 0 .809-.265.948-.684.175-.524-.108-1.09-.632-1.265l-3-1c-.527-.176-1.091.109-1.265.632-.174.525.109 1.091.633 1.266z" fill="#000000" data-original="#000000" class=""></path><path d="m41.447 38.895c.494-.247.694-.848.447-1.342-.133-.268-3.373-6.553-11.894-6.553s-11.761 6.285-11.895 6.553c-.246.493-.047 1.09.445 1.338.491.249 1.093.05 1.342-.44.114-.223 2.86-5.451 10.108-5.451s9.994 5.228 10.107 5.451c.176.348.528.549.894.549.15 0 .303-.034.446-.105z" fill="#000000" data-original="#000000" class=""></path><path d="m7.707 23.293c-.391-.391-1.023-.391-1.414 0l-1 1c-.391.391-.391 1.023 0 1.414.195.195.451.293.707.293s.512-.098.707-.293l1-1c.391-.391.391-1.023 0-1.414z" fill="#000000" data-original="#000000" class=""></path><path d="m10.293 24.293-3 3c-.391.391-.391 1.023 0 1.414.195.195.451.293.707.293s.512-.098.707-.293l3-3c.391-.391.391-1.023 0-1.414s-1.023-.391-1.414 0z" fill="#000000" data-original="#000000" class=""></path><path d="m53.707 23.293c-.391-.391-1.023-.391-1.414 0s-.391 1.023 0 1.414l1 1c.195.195.451.293.707.293s.512-.098.707-.293c.391-.391.391-1.023 0-1.414z" fill="#000000" data-original="#000000" class=""></path><path d="m49.707 24.293c-.391-.391-1.023-.391-1.414 0s-.391 1.023 0 1.414l3 3c.195.195.451.293.707.293s.512-.098.707-.293c.391-.391.391-1.023 0-1.414z" fill="#000000" data-original="#000000" class=""></path><path d="m29 8h2c.553 0 1-.448 1-1s-.447-1-1-1h-2c-.553 0-1 .448-1 1s.447 1 1 1z" fill="#000000" data-original="#000000" class=""></path><path d="m27 12h6c.553 0 1-.448 1-1s-.447-1-1-1h-6c-.553 0-1 .448-1 1s.447 1 1 1z" fill="#000000" data-original="#000000" class=""></path><path d="m14.707 52.293c-.391-.391-1.023-.391-1.414 0s-.391 1.023 0 1.414l1 1c.195.195.451.293.707.293s.512-.098.707-.293c.391-.391.391-1.023 0-1.414z" fill="#000000" data-original="#000000" class=""></path><path d="m15.707 48.293c-.391-.391-1.023-.391-1.414 0s-.391 1.023 0 1.414l3 3c.195.195.451.293.707.293s.512-.098.707-.293c.391-.391.391-1.023 0-1.414z" fill="#000000" data-original="#000000" class=""></path><path d="m45.293 52.293-1 1c-.391.391-.391 1.023 0 1.414.195.195.451.293.707.293s.512-.098.707-.293l1-1c.391-.391.391-1.023 0-1.414s-1.023-.391-1.414 0z" fill="#000000" data-original="#000000" class=""></path><path d="m45.707 48.293c-.391-.391-1.023-.391-1.414 0l-3 3c-.391.391-.391 1.023 0 1.414.195.195.451.293.707.293s.512-.098.707-.293l3-3c.391-.391.391-1.023 0-1.414z" fill="#000000" data-original="#000000" class=""></path><path d="m31 35h-2c-.553 0-1 .448-1 1s.447 1 1 1h2c.553 0 1-.448 1-1s-.447-1-1-1z" fill="#000000" data-original="#000000" class=""></path></g></g></svg>