<svg xmlns="http://www.w3.org/2000/svg" version="1.1" xmlns:xlink="http://www.w3.org/1999/xlink" xmlns:svgjs="http://svgjs.com/svgjs"  x="0" y="0" viewBox="0 0 512.00074 512" style="enable-background:new 0 0 512 512" xml:space="preserve" class=""><g><path xmlns="http://www.w3.org/2000/svg" d="m481.128906 247.316406c-8.21875-.984375-15.6875 4.890625-16.671875 13.117188-12.324219 103.289062-100.292969 181.183594-204.621093 181.183594-93.828126 0-174.414063-63.011719-198.652344-150.832032l17.945312 9.855469c7.261719 3.988281 16.382813 1.335937 20.371094-5.925781 3.988281-7.257813 1.332031-16.378906-5.925781-20.367188l-46.03125-25.285156c-7.257813-3.984375-16.367188-1.339844-20.363281 5.914062l-25.316407 45.96875c-3.996093 7.257813-1.351562 16.378907 5.902344 20.375 2.296875 1.261719 4.777344 1.863282 7.222656 1.863282 5.292969 0 10.421875-2.804688 13.152344-7.765625l5.867187-10.652344c29.722657 97.496094 120.492188 166.847656 225.828126 166.847656 119.511718 0 220.285156-89.261719 234.410156-207.628906.980468-8.222656-4.890625-15.6875-13.117188-16.667969zm0 0" fill="#0059b2" data-original="#0059b2" class=""></path><path xmlns="http://www.w3.org/2000/svg" d="m502.933594 128.085938c-7.601563-3.273438-16.429688.230468-19.710938 7.835937l-4.722656 10.953125c-14.773438-36.109375-38.476562-68.425781-69.003906-93.449219-42.039063-34.453125-95.1875-53.425781-149.660156-53.425781-54.472657 0-107.621094 18.972656-149.660157 53.425781-41.457031 33.980469-70.347656 81.398438-81.347656 133.527344-1.710937 8.105469 3.476563 16.0625 11.582031 17.769531 8.105469 1.714844 16.0625-3.472656 17.773438-11.578125 9.59375-45.46875 34.8125-86.851562 71.007812-116.515625 36.691406-30.070312 83.085938-46.632812 130.644532-46.632812 47.558593 0 93.953124 16.5625 130.644531 46.632812 28.195312 23.109375 49.730469 53.332032 62.40625 87.058594l-18.992188-8.167969c-7.605469-3.269531-16.433593.242188-19.703125 7.851563-3.273437 7.609375.238282 16.429687 7.851563 19.703125l48.25 20.753906c1.933593.832031 3.941406 1.222656 5.917969 1.222656 5.808593 0 11.335937-3.390625 13.78125-9.0625l20.777343-48.1875c3.28125-7.605469-.226562-16.433593-7.835937-19.714843zm0 0" fill="#0059b2" data-original="#0059b2" class=""></path><path xmlns="http://www.w3.org/2000/svg" d="m168.542969 269.238281c-8.285157 0-15 6.714844-15 15v6.011719c0 31.511719 25.660156 57.148438 57.203125 57.148438h6.238281v26.699218c0 8.28125 6.714844 15 15 15 8.28125 0 15-6.71875 15-15v-26.699218h18.03125v26.699218c0 8.28125 6.71875 15 15 15 8.285156 0 15-6.71875 15-15v-26.699218h6.238281c31.542969 0 57.203125-25.636719 57.203125-57.148438v-8.695312c0-22.453126-15.113281-42.351563-36.757812-48.390626l-26.683594-7.449218v-73.628906h6.238281c15 0 27.203125 12.175781 27.203125 27.148437v2.414063c0 8.285156 6.714844 15 15 15 8.285157 0 15-6.714844 15-15v-2.414063c0-31.511719-25.664062-57.148437-57.203125-57.148437h-6.238281v-24.566407c0-8.285156-6.714844-15-15-15s-15 6.714844-15 15v24.566407h-18.035156v-24.566407c0-8.285156-6.714844-15-15-15-8.28125 0-15 6.714844-15 15v24.566407h-6.234375c-31.542969 0-57.203125 25.636718-57.203125 57.148437 0 22.453125 15.113281 42.351563 36.757812 48.390625l26.683594 7.449219v82.324219h-6.238281c-15 0-27.203125-12.179688-27.203125-27.148438v-6.011719c0-8.285156-6.71875-15-15-15zm78.441406 48.160157v-73.949219l18.03125 5.035156v68.914063zm66.648437-55.34375c8.730469 2.4375 14.824219 10.453124 14.824219 19.5v8.695312c0 14.96875-12.203125 27.148438-27.203125 27.148438h-6.238281v-60.539063zm-48.617187-109.972657v65.253907l-18.03125-5.03125v-60.222657zm-66.648437 46.648438c-8.730469-2.4375-14.824219-10.453125-14.824219-19.496094 0-14.972656 12.203125-27.152344 27.203125-27.152344h6.238281v51.847657zm0 0" fill="#00cc66" data-original="#00cc66" class=""></path><path xmlns="http://www.w3.org/2000/svg" d="m61.183594 290.785156 17.945312 9.855469c7.261719 3.988281 16.382813 1.335937 20.371094-5.925781 3.988281-7.261719 1.332031-16.378906-5.925781-20.367188l-46.03125-25.285156c-7.257813-3.984375-16.367188-1.339844-20.363281 5.914062l-25.316407 45.96875c-3.996093 7.257813-1.351562 16.378907 5.902344 20.375 2.296875 1.261719 4.777344 1.863282 7.222656 1.863282 5.292969 0 10.421875-2.804688 13.152344-7.765625l5.867187-10.652344c29.363282 96.308594 118.292969 165.144531 221.992188 166.808594v-30c-92.183594-1.691407-170.90625-64.167969-194.816406-150.789063zm0 0" fill="#176ee5" data-original="#176ee5" class=""></path><path xmlns="http://www.w3.org/2000/svg" d="m110.175781 53.425781c-41.457031 33.980469-70.347656 81.398438-81.347656 133.527344-1.710937 8.105469 3.476563 16.0625 11.582031 17.769531 8.105469 1.714844 16.0625-3.472656 17.773438-11.578125 9.59375-45.46875 34.8125-86.851562 71.007812-116.515625 35.703125-29.261718 80.597656-45.722656 126.808594-46.589844v-29.9960932c-53.128906.8671872-104.773438 19.7382812-145.824219 53.3828122zm0 0" fill="#176ee5" data-original="#176ee5" class=""></path><path xmlns="http://www.w3.org/2000/svg" d="m246.984375 317.398438v-73.949219l9.015625 2.515625v-31.144532l-9.015625-2.515624v-60.222657h9.015625v-29.996093h-9.015625v-24.570313c0-8.28125-6.71875-15-15-15-8.285156 0-15 6.71875-15 15v24.570313h-6.238281c-31.542969 0-57.203125 25.636718-57.203125 57.148437 0 22.449219 15.113281 42.347656 36.757812 48.390625l26.683594 7.449219v82.324219h-6.238281c-15 0-27.203125-12.179688-27.203125-27.148438v-6.011719c0-8.285156-6.714844-15-15-15-8.285157 0-15 6.714844-15 15v6.011719c0 31.511719 25.660156 57.148438 57.203125 57.148438h6.238281v26.695312c0 8.285156 6.714844 15 15 15s15-6.714844 15-15v-26.695312h9.015625v-30zm-30-113.46875-18.617187-5.199219c-8.730469-2.4375-14.824219-10.453125-14.824219-19.496094 0-14.972656 12.203125-27.152344 27.203125-27.152344h6.238281zm0 0" fill="#00ff80" data-original="#00ff80" class=""></path></g></svg>